<svg width="38" height="39" viewBox="0 0 38 39" fill="none" xmlns="http://www.w3.org/2000/svg">
<path d="M25.7292 6.30212V32.4271C25.7292 35.3504 27.7459 36.9792 29.8854 36.9792C31.8646 36.9792 34.0417 35.5938 34.0417 32.4271V6.50004C34.0417 3.82025 32.0625 2.14587 29.8854 2.14587C27.7083 2.14587 25.7292 3.99244 25.7292 6.30212Z" fill="#F9AB00"/>
<path d="M14.8438 19.5625V32.4271C14.8438 35.3503 16.8605 36.9792 19 36.9792C20.9792 36.9792 23.1562 35.5937 23.1562 32.4271V19.7604C23.1562 17.0806 21.1771 15.4062 19 15.4062C16.8229 15.4062 14.8438 17.2528 14.8438 19.5625Z" fill="#E37400"/>
<path d="M8.11459 36.9792C10.41 36.9792 12.2708 35.1184 12.2708 32.823C12.2708 30.5276 10.41 28.6667 8.11459 28.6667C5.81915 28.6667 3.95834 30.5276 3.95834 32.823C3.95834 35.1184 5.81915 36.9792 8.11459 36.9792Z" fill="#E37400"/>
</svg>
