<svg width="38" height="41" viewBox="0 0 38 41" fill="none" xmlns="http://www.w3.org/2000/svg">
<g clip-path="url(#clip0)">
<path d="M29.2411 13.6706V8.94088C30.4539 8.40034 31.3972 7.04899 31.3972 5.69764V5.5625C31.2624 3.53548 29.6454 1.91385 27.6241 1.91385H27.4894C25.4681 1.91385 23.8511 3.53548 23.8511 5.5625V5.69764C23.8511 7.04899 24.6596 8.40034 26.0071 8.94088V13.6706C24.2553 13.9409 22.5035 14.7517 21.0213 15.8328L8.08511 5.69764C8.21986 5.42737 8.21986 5.02196 8.21986 4.61656C8.21986 2.31926 6.33333 0.427368 4.1773 0.427368C1.88652 0.562503 0 2.4544 0 4.61656C0 6.91385 1.88652 8.80575 4.04255 8.80575C4.71631 8.80575 5.39007 8.67061 6.06383 8.26521L18.8652 18.2652C16.5745 21.7787 16.5745 26.5084 19 30.022L15.0922 33.9409C14.8227 33.8057 14.4184 33.8057 14.1489 33.8057C12.2624 33.8057 10.7801 35.2922 10.7801 37.1841C10.7801 39.076 12.2624 40.5625 14.1489 40.5625C16.0355 40.5625 17.5177 39.076 17.5177 37.1841C17.5177 36.9139 17.5177 36.5084 17.383 36.2382L21.2908 32.3193C25.8723 35.8328 32.3404 35.022 35.844 30.4274C39.3475 25.8328 38.539 19.3463 33.9574 15.8328C32.6099 14.7517 30.9929 13.9409 29.2411 13.6706ZM27.6241 29.3463C24.6596 29.3463 22.234 26.9139 22.234 23.9409C22.234 20.9679 24.6596 18.5355 27.6241 18.5355C30.5886 18.5355 33.0142 20.9679 33.0142 23.9409C33.0142 26.9139 30.5886 29.3463 27.6241 29.3463Z" fill="#FF7A59"/>
</g>
<defs>
<clipPath id="clip0">
<rect width="38" height="40" fill="white" transform="translate(0 0.5625)"/>
</clipPath>
</defs>
</svg>
