<?xml version="1.0" standalone="no"?>
<!DOCTYPE svg PUBLIC "-//W3C//DTD SVG 20010904//EN"
 "http://www.w3.org/TR/2001/REC-SVG-20010904/DTD/svg10.dtd">
<svg version="1.0" xmlns="http://www.w3.org/2000/svg"
 width="70.000000pt" height="70.000000pt" viewBox="0 0 70.000000 70.000000"
 preserveAspectRatio="xMidYMid meet">

<g transform="translate(0.000000,70.000000) scale(0.100000,-0.100000)"
fill="#000000" stroke="none">
<path d="M0 368 l1 -333 27 75 c39 108 44 115 119 145 107 43 123 47 123 27 0
-31 16 -45 37 -34 14 8 23 8 31 0 8 -8 15 -8 26 1 8 7 20 10 25 7 6 -4 15 3
21 14 14 26 40 26 47 0 3 -11 10 -20 15 -20 8 0 5 18 -10 59 -4 10 -1 13 12 8
11 -4 19 -1 23 11 4 9 27 37 52 61 25 24 46 49 47 55 2 27 17 66 25 66 5 0 9
11 9 25 0 14 -6 25 -13 25 -7 0 -21 14 -30 30 -10 17 -23 30 -28 30 -6 0 -17
7 -25 15 -9 8 -25 15 -36 15 -11 0 -34 12 -51 26 -16 14 -33 22 -36 17 -3 -4
-26 -9 -50 -10 -33 -2 -54 -11 -86 -37 -46 -38 -88 -114 -79 -143 5 -15 4 -15
-5 -3 -5 8 -13 12 -16 8 -4 -3 -21 -1 -38 7 -18 7 -38 10 -44 8 -7 -3 -13 0
-13 6 0 6 6 11 13 11 6 0 4 5 -5 11 -22 12 -24 29 -4 29 9 0 12 7 9 20 -3 11
-9 20 -14 20 -5 0 -9 15 -9 33 0 20 3 27 8 19 7 -9 14 -8 32 8 l23 20 -66 0
-67 0 0 -332z m476 223 c43 -26 57 -85 21 -86 -7 0 -13 -4 -14 -10 -1 -5 5 -9
14 -7 9 2 12 -1 8 -8 -4 -6 -15 -8 -26 -5 -14 5 -19 2 -19 -12 0 -14 2 -15 9
-4 7 10 12 8 25 -10 22 -32 21 -37 -18 -90 -32 -44 -36 -46 -71 -40 -23 4 -42
14 -49 26 -6 11 -13 22 -16 25 -3 3 -6 19 -7 35 -1 17 -3 42 -4 58 -2 32 9 47
21 28 5 -9 15 -11 26 -7 18 7 18 8 0 22 -19 13 -19 14 7 14 15 0 27 -5 27 -11
0 -5 5 -7 12 -3 14 9 -18 34 -43 34 -30 0 -31 18 -2 44 33 31 57 32 99 7z"/>
<path d="M420 464 c0 -8 5 -12 10 -9 6 3 10 10 10 16 0 5 -4 9 -10 9 -5 0 -10
-7 -10 -16z"/>
<path d="M373 423 c-24 -5 -31 -27 -11 -39 6 -4 36 -8 65 -10 44 -2 53 1 51
13 -2 8 -21 21 -43 29 -22 7 -40 13 -40 12 0 0 -10 -3 -22 -5z"/>
<path d="M385 340 c3 -5 15 -10 26 -10 11 0 17 5 14 10 -3 6 -15 10 -26 10
-11 0 -17 -4 -14 -10z"/>
<path d="M675 690 c3 -5 10 -10 16 -10 5 0 9 5 9 10 0 6 -7 10 -16 10 -8 0
-12 -4 -9 -10z"/>
<path d="M251 254 c0 -11 3 -14 6 -6 3 7 2 16 -1 19 -3 4 -6 -2 -5 -13z"/>
<path d="M665 240 c-4 -6 -11 -7 -17 -4 -6 4 -1 -11 11 -32 12 -21 25 -59 30
-84 8 -41 9 -36 10 43 1 70 -2 87 -13 87 -8 0 -18 -5 -21 -10z"/>
<path d="M110 15 c0 -8 4 -15 10 -15 5 0 7 7 4 15 -4 8 -8 15 -10 15 -2 0 -4
-7 -4 -15z"/>
</g>
</svg>
