<svg width="638" height="488" viewBox="0 0 638 488" fill="none" xmlns="http://www.w3.org/2000/svg">
<g filter="url(#filter0_d)">
<path d="M574 0H64C52.9543 0 44 8.9543 44 20V380C44 391.046 52.9543 400 64 400H574C585.046 400 594 391.046 594 380V20C594 8.9543 585.046 0 574 0Z" fill="white"/>
<path d="M64 36.7148V21.0098H66.5674V34.5127H73.2168V36.7148H64Z" fill="#AAAAAA"/>
<path d="M80.8438 36.9297C78.9961 36.9297 77.5495 36.3926 76.5039 35.3184C75.4655 34.237 74.9463 32.751 74.9463 30.8604C74.9463 28.9196 75.4297 27.3942 76.3965 26.2842C77.3633 25.1742 78.6917 24.6191 80.3818 24.6191C81.9502 24.6191 83.1891 25.0954 84.0986 26.0479C85.0081 27.0003 85.4629 28.3109 85.4629 29.9795V31.3438H77.5459C77.5817 32.4967 77.8932 33.3848 78.4805 34.0078C79.0677 34.6237 79.8949 34.9316 80.9619 34.9316C81.6637 34.9316 82.3154 34.8672 82.917 34.7383C83.5257 34.6022 84.1774 34.3802 84.8721 34.0723V36.124C84.2562 36.4176 83.6331 36.6253 83.0029 36.7471C82.3727 36.8688 81.653 36.9297 80.8438 36.9297ZM80.3818 26.5312C79.5798 26.5312 78.9352 26.7855 78.4482 27.2939C77.9684 27.8024 77.682 28.5436 77.5889 29.5176H82.9814C82.9671 28.5365 82.7308 27.7952 82.2725 27.2939C81.8141 26.7855 81.1839 26.5312 80.3818 26.5312Z" fill="#AAAAAA"/>
<path d="M95.7646 36.7148L95.2598 35.0605H95.1738C94.6009 35.7839 94.0244 36.278 93.4443 36.543C92.8643 36.8008 92.1195 36.9297 91.21 36.9297C90.0426 36.9297 89.1296 36.6146 88.4707 35.9844C87.819 35.3542 87.4932 34.4626 87.4932 33.3096C87.4932 32.085 87.9479 31.1611 88.8574 30.5381C89.7669 29.915 91.1527 29.5749 93.0146 29.5176L95.0664 29.4531V28.8193C95.0664 28.0602 94.8874 27.4945 94.5293 27.1221C94.1784 26.7425 93.6305 26.5527 92.8857 26.5527C92.277 26.5527 91.6934 26.6423 91.1348 26.8213C90.5762 27.0003 90.0391 27.2116 89.5234 27.4551L88.707 25.6504C89.3516 25.3138 90.057 25.0596 90.8232 24.8877C91.5895 24.7087 92.3128 24.6191 92.9932 24.6191C94.5042 24.6191 95.6429 24.9486 96.4092 25.6074C97.1826 26.2663 97.5693 27.3011 97.5693 28.7119V36.7148H95.7646ZM92.0049 34.9961C92.9215 34.9961 93.6556 34.7419 94.207 34.2334C94.7656 33.7178 95.0449 32.998 95.0449 32.0742V31.043L93.5195 31.1074C92.3307 31.1504 91.4642 31.3509 90.9199 31.709C90.3828 32.0599 90.1143 32.6006 90.1143 33.3311C90.1143 33.861 90.2718 34.2728 90.5869 34.5664C90.902 34.8529 91.3747 34.9961 92.0049 34.9961Z" fill="#AAAAAA"/>
<path d="M105.1 36.9297C103.617 36.9297 102.461 36.3926 101.63 35.3184C100.799 34.2441 100.384 32.7367 100.384 30.7959C100.384 28.848 100.803 27.3333 101.641 26.252C102.486 25.1634 103.653 24.6191 105.143 24.6191C106.704 24.6191 107.893 25.1956 108.709 26.3486H108.838C108.716 25.4964 108.655 24.8232 108.655 24.3291V20H111.19V36.7148H109.214L108.773 35.1572H108.655C107.846 36.3389 106.661 36.9297 105.1 36.9297ZM105.776 34.8887C106.815 34.8887 107.57 34.5986 108.043 34.0186C108.516 33.4313 108.759 32.4824 108.773 31.1719V30.8174C108.773 29.3206 108.53 28.2572 108.043 27.627C107.556 26.9967 106.793 26.6816 105.755 26.6816C104.867 26.6816 104.183 27.0433 103.703 27.7666C103.223 28.4827 102.983 29.5068 102.983 30.8389C102.983 32.1566 103.216 33.1628 103.682 33.8574C104.147 34.5449 104.845 34.8887 105.776 34.8887Z" fill="#AAAAAA"/>
<path d="M122.781 33.3311C122.781 34.4912 122.359 35.3828 121.514 36.0059C120.669 36.6217 119.458 36.9297 117.883 36.9297C116.3 36.9297 115.029 36.6898 114.069 36.21V34.0293C115.466 34.6738 116.766 34.9961 117.969 34.9961C119.523 34.9961 120.3 34.527 120.3 33.5889C120.3 33.2881 120.214 33.0374 120.042 32.8369C119.87 32.6364 119.587 32.4287 119.193 32.2139C118.8 31.999 118.252 31.7555 117.55 31.4834C116.182 30.9535 115.255 30.4235 114.768 29.8936C114.288 29.3636 114.048 28.6761 114.048 27.8311C114.048 26.8141 114.456 26.0264 115.273 25.4678C116.096 24.902 117.213 24.6191 118.624 24.6191C120.021 24.6191 121.342 24.902 122.588 25.4678L121.772 27.3691C120.49 26.8392 119.412 26.5742 118.538 26.5742C117.206 26.5742 116.54 26.9538 116.54 27.7129C116.54 28.0853 116.712 28.4004 117.056 28.6582C117.407 28.916 118.166 29.2705 119.333 29.7217C120.314 30.1012 121.027 30.4486 121.471 30.7637C121.915 31.0788 122.244 31.444 122.459 31.8594C122.674 32.2676 122.781 32.7581 122.781 33.3311Z" fill="#AAAAAA"/>
<path d="M137.305 24.6191C138.787 24.6191 139.94 25.1562 140.764 26.2305C141.594 27.3047 142.01 28.8122 142.01 30.7529C142.01 32.7008 141.591 34.2191 140.753 35.3076C139.915 36.389 138.751 36.9297 137.262 36.9297C135.758 36.9297 134.591 36.389 133.76 35.3076H133.588L133.126 36.7148H131.235V20H133.76V23.9746C133.76 24.2682 133.745 24.7051 133.717 25.2852C133.688 25.8652 133.667 26.234 133.652 26.3916H133.76C134.562 25.21 135.744 24.6191 137.305 24.6191ZM136.649 26.6816C135.633 26.6816 134.898 26.9824 134.447 27.584C134.003 28.1784 133.774 29.1774 133.76 30.5811V30.7529C133.76 32.1995 133.989 33.2487 134.447 33.9004C134.906 34.5449 135.654 34.8672 136.692 34.8672C137.588 34.8672 138.264 34.5127 138.723 33.8037C139.188 33.0947 139.421 32.0706 139.421 30.7314C139.421 28.0316 138.497 26.6816 136.649 26.6816Z" fill="#AAAAAA"/>
<path d="M143.138 24.834H145.888L148.305 31.5693C148.67 32.529 148.913 33.4313 149.035 34.2764H149.121C149.186 33.8825 149.304 33.4062 149.476 32.8477C149.647 32.2819 150.557 29.6107 152.204 24.834H154.933L149.852 38.2939C148.928 40.7646 147.388 42 145.232 42C144.674 42 144.13 41.9391 143.6 41.8174V39.8193C143.979 39.9053 144.412 39.9482 144.899 39.9482C146.117 39.9482 146.973 39.2428 147.467 37.832L147.907 36.7148L143.138 24.834Z" fill="#AAAAAA"/>
<path d="M169.402 22.9863C167.927 22.9863 166.767 23.5091 165.922 24.5547C165.077 25.6003 164.654 27.0433 164.654 28.8838C164.654 30.8102 165.059 32.2676 165.868 33.2559C166.685 34.2441 167.863 34.7383 169.402 34.7383C170.068 34.7383 170.713 34.6738 171.336 34.5449C171.959 34.4089 172.607 34.237 173.28 34.0293V36.2314C172.049 36.6969 170.652 36.9297 169.091 36.9297C166.792 36.9297 165.027 36.235 163.795 34.8457C162.563 33.4492 161.947 31.4548 161.947 28.8623C161.947 27.2295 162.244 25.8008 162.839 24.5762C163.44 23.3516 164.307 22.4134 165.438 21.7617C166.57 21.11 167.898 20.7842 169.424 20.7842C171.028 20.7842 172.51 21.1208 173.871 21.7939L172.947 23.9316C172.417 23.681 171.855 23.4626 171.261 23.2764C170.674 23.083 170.054 22.9863 169.402 22.9863Z" fill="#AAAAAA"/>
<path d="M186.934 30.7529C186.934 32.6937 186.436 34.2083 185.44 35.2969C184.445 36.3854 183.059 36.9297 181.283 36.9297C180.173 36.9297 179.192 36.679 178.34 36.1777C177.488 35.6764 176.832 34.9567 176.374 34.0186C175.916 33.0804 175.687 31.9919 175.687 30.7529C175.687 28.8265 176.181 27.3226 177.169 26.2412C178.157 25.1598 179.55 24.6191 181.348 24.6191C183.066 24.6191 184.427 25.1742 185.43 26.2842C186.432 27.387 186.934 28.8766 186.934 30.7529ZM178.286 30.7529C178.286 33.4958 179.299 34.8672 181.326 34.8672C183.331 34.8672 184.334 33.4958 184.334 30.7529C184.334 28.0387 183.324 26.6816 181.305 26.6816C180.245 26.6816 179.475 27.0326 178.995 27.7344C178.522 28.4362 178.286 29.4424 178.286 30.7529Z" fill="#AAAAAA"/>
<path d="M198.224 36.7148L197.869 35.1572H197.74C197.389 35.7087 196.888 36.1419 196.236 36.457C195.592 36.7721 194.854 36.9297 194.023 36.9297C192.584 36.9297 191.51 36.5716 190.801 35.8555C190.092 35.1393 189.737 34.0544 189.737 32.6006V24.834H192.283V32.1602C192.283 33.0697 192.469 33.7536 192.842 34.2119C193.214 34.6631 193.798 34.8887 194.593 34.8887C195.653 34.8887 196.43 34.5736 196.924 33.9434C197.425 33.306 197.676 32.2425 197.676 30.7529V24.834H200.211V36.7148H198.224Z" fill="#AAAAAA"/>
<path d="M214.262 36.7148H211.727V29.4102C211.727 28.4935 211.54 27.8096 211.168 27.3584C210.803 26.9072 210.219 26.6816 209.417 26.6816C208.35 26.6816 207.569 26.9967 207.075 27.627C206.581 28.2572 206.334 29.3135 206.334 30.7959V36.7148H203.81V24.834H205.786L206.141 26.3916H206.27C206.628 25.8258 207.136 25.389 207.795 25.0811C208.454 24.7731 209.184 24.6191 209.986 24.6191C212.837 24.6191 214.262 26.0693 214.262 28.9697V36.7148Z" fill="#AAAAAA"/>
<path d="M222.2 34.8887C222.816 34.8887 223.432 34.792 224.048 34.5986V36.5C223.769 36.6217 223.407 36.722 222.963 36.8008C222.526 36.8867 222.071 36.9297 221.599 36.9297C219.207 36.9297 218.011 35.6693 218.011 33.1484V26.7461H216.389V25.6289L218.129 24.7051L218.988 22.1914H220.546V24.834H223.93V26.7461H220.546V33.1055C220.546 33.7142 220.696 34.1654 220.997 34.459C221.305 34.7454 221.706 34.8887 222.2 34.8887Z" fill="#AAAAAA"/>
<path d="M232.459 24.6191C232.967 24.6191 233.386 24.6549 233.716 24.7266L233.469 27.0791C233.111 26.9932 232.738 26.9502 232.352 26.9502C231.342 26.9502 230.522 27.2796 229.892 27.9385C229.269 28.5973 228.957 29.4531 228.957 30.5059V36.7148H226.433V24.834H228.409L228.742 26.9287H228.871C229.265 26.2197 229.777 25.6576 230.407 25.2422C231.045 24.8268 231.729 24.6191 232.459 24.6191Z" fill="#AAAAAA"/>
<path d="M234.124 24.834H236.874L239.291 31.5693C239.656 32.529 239.9 33.4313 240.021 34.2764H240.107C240.172 33.8825 240.29 33.4062 240.462 32.8477C240.634 32.2819 241.543 29.6107 243.19 24.834H245.919L240.838 38.2939C239.914 40.7646 238.374 42 236.219 42C235.66 42 235.116 41.9391 234.586 41.8174V39.8193C234.965 39.9053 235.399 39.9482 235.886 39.9482C237.103 39.9482 237.959 39.2428 238.453 37.832L238.894 36.7148L234.124 24.834Z" fill="#AAAAAA"/>
<path d="M440.323 329.914C509.887 329.914 566.28 273.521 566.28 203.957C566.28 134.393 509.887 78 440.323 78C370.759 78 314.366 134.393 314.366 203.957C314.366 273.521 370.759 329.914 440.323 329.914Z" fill="#4B57C5"/>
<path d="M126.272 241.512C156.798 241.512 181.544 216.766 181.544 186.24C181.544 155.714 156.798 130.968 126.272 130.968C95.7462 130.968 71 155.714 71 186.24C71 216.766 95.7462 241.512 126.272 241.512Z" fill="#E41B50"/>
<path d="M235.2 360.591C258.681 360.591 277.717 341.556 277.717 318.074C277.717 294.593 258.681 275.557 235.2 275.557C211.718 275.557 192.683 294.593 192.683 318.074C192.683 341.556 211.718 360.591 235.2 360.591Z" fill="#B0B8FC"/>
<path d="M190.051 284.606C206.782 284.606 220.344 271.044 220.344 254.313C220.344 237.582 206.782 224.02 190.051 224.02C173.32 224.02 159.758 237.582 159.758 254.313C159.758 271.044 173.32 284.606 190.051 284.606Z" fill="#34AD78"/>
<path d="M312.189 317.011C323.636 317.011 332.916 307.731 332.916 296.284C332.916 284.837 323.636 275.557 312.189 275.557C300.742 275.557 291.462 284.837 291.462 296.284C291.462 307.731 300.742 317.011 312.189 317.011Z" fill="#FB6987"/>
<path d="M209.116 195.327C220.563 195.327 229.843 186.047 229.843 174.6C229.843 163.153 220.563 153.873 209.116 153.873C197.669 153.873 188.389 163.153 188.389 174.6C188.389 186.047 197.669 195.327 209.116 195.327Z" fill="#75E1B2"/>
<path d="M223.843 227.645C232.355 227.645 239.255 220.745 239.255 212.233C239.255 203.721 232.355 196.821 223.843 196.821C215.331 196.821 208.431 203.721 208.431 212.233C208.431 220.745 215.331 227.645 223.843 227.645Z" fill="#5DD5F6"/>
<path d="M277.128 278.382C297.674 278.382 314.33 261.726 314.33 241.18C314.33 220.634 297.674 203.978 277.128 203.978C256.582 203.978 239.926 220.634 239.926 241.18C239.926 261.726 256.582 278.382 277.128 278.382Z" fill="#707EFA"/>
<path d="M262.495 196.15C271.007 196.15 277.907 189.25 277.907 180.738C277.907 172.226 271.007 165.326 262.495 165.326C253.983 165.326 247.083 172.226 247.083 180.738C247.083 189.25 253.983 196.15 262.495 196.15Z" fill="#FFB85C"/>
<path d="M432.807 196.216V206.797C432.807 208.004 432.535 209.063 431.99 209.973C431.454 210.882 430.674 211.58 429.653 212.064C428.631 212.549 427.424 212.791 426.029 212.791C423.927 212.791 422.294 212.254 421.131 211.181C419.967 210.1 419.386 208.623 419.386 206.752V196.216H422.842V206.226C422.842 207.486 423.095 208.411 423.602 209C424.109 209.589 424.948 209.883 426.119 209.883C427.252 209.883 428.072 209.589 428.579 209C429.094 208.403 429.351 207.471 429.351 206.204V196.216H432.807Z" fill="white"/>
<path d="M446.463 208.027C446.463 209.503 445.93 210.666 444.863 211.516C443.805 212.366 442.328 212.791 440.434 212.791C438.69 212.791 437.146 212.463 435.804 211.807V208.586C436.908 209.078 437.84 209.425 438.6 209.626C439.368 209.827 440.069 209.928 440.703 209.928C441.463 209.928 442.045 209.783 442.448 209.492C442.858 209.201 443.063 208.769 443.063 208.195C443.063 207.874 442.973 207.591 442.794 207.345C442.615 207.091 442.351 206.849 442 206.618C441.657 206.386 440.953 206.017 439.886 205.51C438.887 205.041 438.138 204.59 437.638 204.157C437.139 203.725 436.74 203.221 436.442 202.647C436.143 202.073 435.994 201.402 435.994 200.634C435.994 199.188 436.483 198.051 437.459 197.223C438.444 196.395 439.801 195.981 441.53 195.981C442.38 195.981 443.189 196.082 443.957 196.283C444.733 196.485 445.542 196.768 446.384 197.133L445.266 199.829C444.394 199.471 443.67 199.221 443.096 199.079C442.53 198.938 441.97 198.867 441.419 198.867C440.762 198.867 440.259 199.02 439.909 199.326C439.558 199.631 439.383 200.03 439.383 200.522C439.383 200.828 439.454 201.096 439.596 201.327C439.737 201.551 439.961 201.771 440.267 201.987C440.58 202.196 441.314 202.576 442.47 203.128C443.998 203.859 445.046 204.593 445.613 205.331C446.179 206.062 446.463 206.961 446.463 208.027Z" fill="white"/>
<path d="M459.436 212.568L458.251 208.675H452.29L451.104 212.568H447.369L453.14 196.149H457.378L463.172 212.568H459.436ZM457.423 205.768C456.327 202.241 455.708 200.246 455.567 199.784C455.432 199.322 455.335 198.956 455.276 198.688C455.03 199.642 454.325 202.002 453.162 205.768H457.423Z" fill="white"/>
<path d="M92.8873 181.688C91.5825 181.688 90.5722 182.18 89.8564 183.164C89.1407 184.141 88.7828 185.506 88.7828 187.258C88.7828 190.904 90.151 192.727 92.8873 192.727C94.0356 192.727 95.4261 192.44 97.059 191.866V194.774C95.7169 195.333 94.2183 195.612 92.563 195.612C90.1845 195.612 88.3652 194.893 87.1051 193.454C85.8451 192.007 85.215 189.935 85.215 187.235C85.215 185.535 85.5245 184.048 86.1433 182.773C86.7622 181.491 87.6494 180.51 88.8051 179.832C89.9683 179.146 91.329 178.803 92.8873 178.803C94.4755 178.803 96.0711 179.187 97.6742 179.955L96.5557 182.773C95.9443 182.482 95.3292 182.229 94.7104 182.012C94.0915 181.796 93.4838 181.688 92.8873 181.688Z" fill="white"/>
<path d="M108.221 195.389L107.561 193.689H107.471C106.897 194.412 106.305 194.915 105.693 195.199C105.089 195.474 104.299 195.612 103.322 195.612C102.122 195.612 101.175 195.269 100.481 194.583C99.7954 193.898 99.4524 192.921 99.4524 191.653C99.4524 190.326 99.9147 189.349 100.839 188.723C101.771 188.089 103.173 187.739 105.044 187.672L107.214 187.605V187.057C107.214 185.789 106.565 185.155 105.268 185.155C104.269 185.155 103.095 185.457 101.745 186.061L100.616 183.757C102.055 183.004 103.65 182.628 105.402 182.628C107.08 182.628 108.366 182.993 109.261 183.724C110.156 184.454 110.603 185.565 110.603 187.057V195.389H108.221ZM107.214 189.595L105.894 189.64C104.903 189.67 104.165 189.849 103.68 190.177C103.195 190.505 102.953 191.005 102.953 191.676C102.953 192.637 103.505 193.118 104.608 193.118C105.399 193.118 106.029 192.891 106.498 192.436C106.976 191.981 107.214 191.377 107.214 190.624V189.595Z" fill="white"/>
<path d="M125.668 195.389H122.257V188.085C122.257 187.183 122.097 186.509 121.776 186.061C121.455 185.606 120.945 185.379 120.244 185.379C119.289 185.379 118.6 185.7 118.175 186.341C117.75 186.975 117.537 188.03 117.537 189.506V195.389H114.126V182.885H116.732L117.19 184.484H117.381C117.761 183.88 118.283 183.425 118.946 183.12C119.617 182.807 120.378 182.65 121.228 182.65C122.682 182.65 123.785 183.045 124.538 183.836C125.291 184.618 125.668 185.752 125.668 187.235V195.389Z" fill="white"/>
<path d="M137.121 195.389L136.461 193.689H136.371C135.797 194.412 135.204 194.915 134.593 195.199C133.989 195.474 133.199 195.612 132.222 195.612C131.021 195.612 130.075 195.269 129.381 194.583C128.695 193.898 128.352 192.921 128.352 191.653C128.352 190.326 128.814 189.349 129.739 188.723C130.671 188.089 132.073 187.739 133.944 187.672L136.114 187.605V187.057C136.114 185.789 135.465 185.155 134.168 185.155C133.169 185.155 131.994 185.457 130.645 186.061L129.515 183.757C130.954 183.004 132.55 182.628 134.302 182.628C135.98 182.628 137.266 182.993 138.161 183.724C139.055 184.454 139.503 185.565 139.503 187.057V195.389H137.121ZM136.114 189.595L134.794 189.64C133.803 189.67 133.064 189.849 132.58 190.177C132.095 190.505 131.853 191.005 131.853 191.676C131.853 192.637 132.405 193.118 133.508 193.118C134.298 193.118 134.928 192.891 135.398 192.436C135.875 191.981 136.114 191.377 136.114 190.624V189.595Z" fill="white"/>
<path d="M146.985 195.612C145.516 195.612 144.36 195.042 143.518 193.901C142.683 192.76 142.265 191.18 142.265 189.159C142.265 187.109 142.69 185.513 143.54 184.372C144.398 183.224 145.576 182.65 147.074 182.65C148.648 182.65 149.848 183.261 150.676 184.484H150.788C150.616 183.552 150.53 182.721 150.53 181.99V177.986H153.953V195.389H151.336L150.676 193.767H150.53C149.755 194.997 148.573 195.612 146.985 195.612ZM148.182 192.895C149.054 192.895 149.692 192.641 150.094 192.134C150.504 191.627 150.728 190.766 150.765 189.551V189.182C150.765 187.839 150.556 186.878 150.139 186.296C149.729 185.714 149.058 185.424 148.126 185.424C147.365 185.424 146.773 185.748 146.348 186.397C145.93 187.038 145.721 187.974 145.721 189.204C145.721 190.434 145.934 191.359 146.359 191.978C146.784 192.589 147.391 192.895 148.182 192.895Z" fill="white"/>
<path d="M165.461 195.389L164.801 193.689H164.712C164.138 194.412 163.545 194.915 162.934 195.199C162.33 195.474 161.539 195.612 160.563 195.612C159.362 195.612 158.415 195.269 157.722 194.583C157.036 193.898 156.693 192.921 156.693 191.653C156.693 190.326 157.155 189.349 158.08 188.723C159.012 188.089 160.413 187.739 162.285 187.672L164.455 187.605V187.057C164.455 185.789 163.806 185.155 162.509 185.155C161.509 185.155 160.335 185.457 158.986 186.061L157.856 183.757C159.295 183.004 160.891 182.628 162.643 182.628C164.32 182.628 165.607 182.993 166.501 183.724C167.396 184.454 167.843 185.565 167.843 187.057V195.389H165.461ZM164.455 189.595L163.135 189.64C162.143 189.67 161.405 189.849 160.92 190.177C160.436 190.505 160.193 191.005 160.193 191.676C160.193 192.637 160.745 193.118 161.849 193.118C162.639 193.118 163.269 192.891 163.739 192.436C164.216 191.981 164.455 191.377 164.455 190.624V189.595Z" fill="white"/>
<path d="M209.669 325.662H207.111V313.398H214.14V315.529H209.669V318.691H213.83V320.813H209.669V325.662Z" fill="white"/>
<path d="M221.572 316.107C221.919 316.107 222.207 316.133 222.436 316.183L222.243 318.582C222.036 318.526 221.785 318.498 221.488 318.498C220.672 318.498 220.034 318.708 219.576 319.127C219.123 319.547 218.896 320.134 218.896 320.889V325.662H216.338V316.284H218.276L218.653 317.861H218.779C219.07 317.335 219.461 316.913 219.953 316.594C220.451 316.27 220.99 316.107 221.572 316.107Z" fill="white"/>
<path d="M230.094 325.662L229.599 324.387H229.532C229.102 324.929 228.657 325.306 228.199 325.519C227.746 325.726 227.153 325.829 226.42 325.829C225.52 325.829 224.81 325.572 224.29 325.058C223.775 324.543 223.518 323.811 223.518 322.86C223.518 321.865 223.865 321.132 224.558 320.662C225.257 320.187 226.309 319.924 227.712 319.874L229.339 319.823V319.412C229.339 318.462 228.853 317.986 227.88 317.986C227.131 317.986 226.25 318.213 225.238 318.666L224.39 316.938C225.47 316.373 226.666 316.091 227.981 316.091C229.239 316.091 230.203 316.365 230.874 316.913C231.545 317.461 231.881 318.294 231.881 319.412V325.662H230.094ZM229.339 321.317L228.35 321.35C227.606 321.372 227.052 321.507 226.689 321.753C226.325 321.999 226.144 322.373 226.144 322.877C226.144 323.598 226.557 323.959 227.385 323.959C227.978 323.959 228.45 323.788 228.803 323.447C229.16 323.106 229.339 322.653 229.339 322.088V321.317Z" fill="white"/>
<path d="M243.18 325.662H240.621V320.184C240.621 319.507 240.501 319.001 240.261 318.666C240.02 318.325 239.637 318.154 239.112 318.154C238.396 318.154 237.879 318.395 237.56 318.876C237.241 319.351 237.082 320.142 237.082 321.249V325.662H234.523V316.284H236.478L236.822 317.483H236.964C237.249 317.03 237.641 316.689 238.139 316.46C238.642 316.225 239.212 316.107 239.85 316.107C240.94 316.107 241.768 316.404 242.333 316.997C242.897 317.584 243.18 318.434 243.18 319.547V325.662Z" fill="white"/>
<path d="M249.622 325.829C246.703 325.829 245.243 324.227 245.243 321.023C245.243 319.429 245.64 318.213 246.434 317.374C247.228 316.53 248.366 316.107 249.848 316.107C250.933 316.107 251.906 316.32 252.767 316.745L252.012 318.725C251.61 318.562 251.235 318.431 250.888 318.33C250.542 318.224 250.195 318.171 249.848 318.171C248.517 318.171 247.852 319.116 247.852 321.006C247.852 322.84 248.517 323.757 249.848 323.757C250.34 323.757 250.796 323.693 251.216 323.565C251.635 323.43 252.054 323.223 252.474 322.944V325.133C252.06 325.396 251.641 325.578 251.216 325.678C250.796 325.779 250.265 325.829 249.622 325.829Z" fill="white"/>
<path d="M258.538 317.928C257.996 317.928 257.571 318.101 257.263 318.448C256.956 318.789 256.78 319.275 256.735 319.907H260.325C260.314 319.275 260.149 318.789 259.83 318.448C259.511 318.101 259.081 317.928 258.538 317.928ZM258.899 325.829C257.389 325.829 256.209 325.413 255.359 324.579C254.509 323.746 254.084 322.566 254.084 321.04C254.084 319.468 254.476 318.255 255.259 317.399C256.047 316.538 257.135 316.107 258.522 316.107C259.847 316.107 260.879 316.485 261.617 317.24C262.355 317.995 262.724 319.038 262.724 320.369V321.61H256.676C256.704 322.337 256.919 322.905 257.322 323.313C257.725 323.721 258.29 323.925 259.017 323.925C259.581 323.925 260.115 323.866 260.619 323.749C261.122 323.632 261.648 323.444 262.196 323.187V325.167C261.748 325.39 261.27 325.555 260.761 325.662C260.252 325.773 259.632 325.829 258.899 325.829Z" fill="white"/>
<path d="M177.836 258.378V251.224H179.353V258.378H177.836Z" fill="white"/>
<path d="M186.086 258.378H184.594V255.183C184.594 254.788 184.524 254.493 184.383 254.297C184.243 254.098 184.02 253.998 183.713 253.998C183.295 253.998 182.994 254.139 182.808 254.419C182.622 254.696 182.529 255.158 182.529 255.804V258.378H181.037V252.907H182.177L182.377 253.607H182.46C182.627 253.343 182.855 253.144 183.145 253.01C183.439 252.873 183.772 252.805 184.144 252.805C184.78 252.805 185.263 252.977 185.592 253.323C185.921 253.666 186.086 254.162 186.086 254.811V258.378Z" fill="white"/>
<path d="M189.355 258.476C188.712 258.476 188.206 258.226 187.838 257.727C187.473 257.228 187.29 256.536 187.29 255.652C187.29 254.755 187.476 254.057 187.848 253.558C188.223 253.056 188.738 252.805 189.394 252.805C190.082 252.805 190.607 253.072 190.969 253.607H191.018C190.943 253.199 190.906 252.835 190.906 252.516V250.764H192.403V258.378H191.258L190.969 257.668H190.906C190.567 258.206 190.05 258.476 189.355 258.476ZM189.878 257.287C190.26 257.287 190.539 257.176 190.715 256.954C190.894 256.732 190.992 256.355 191.009 255.824V255.662C191.009 255.075 190.917 254.654 190.735 254.4C190.555 254.145 190.262 254.018 189.854 254.018C189.521 254.018 189.262 254.16 189.076 254.444C188.893 254.724 188.802 255.134 188.802 255.672C188.802 256.21 188.895 256.615 189.081 256.885C189.267 257.153 189.533 257.287 189.878 257.287Z" fill="white"/>
<path d="M193.9 251.493C193.9 251.007 194.171 250.764 194.713 250.764C195.254 250.764 195.525 251.007 195.525 251.493C195.525 251.725 195.456 251.906 195.319 252.036C195.186 252.164 194.983 252.227 194.713 252.227C194.171 252.227 193.9 251.982 193.9 251.493ZM195.456 258.378H193.964V252.907H195.456V258.378Z" fill="white"/>
<path d="M200.501 258.378L200.212 257.634H200.173C199.922 257.95 199.663 258.171 199.395 258.295C199.131 258.415 198.785 258.476 198.358 258.476C197.833 258.476 197.418 258.326 197.115 258.025C196.815 257.725 196.665 257.298 196.665 256.743C196.665 256.163 196.867 255.735 197.272 255.461C197.679 255.184 198.293 255.031 199.111 255.001L200.061 254.972V254.732C200.061 254.178 199.777 253.901 199.209 253.901C198.772 253.901 198.258 254.033 197.668 254.297L197.174 253.289C197.803 252.959 198.501 252.795 199.268 252.795C200.002 252.795 200.565 252.955 200.956 253.274C201.348 253.594 201.543 254.08 201.543 254.732V258.378H200.501ZM200.061 255.843L199.483 255.863C199.05 255.876 198.727 255.954 198.515 256.098C198.303 256.241 198.196 256.46 198.196 256.753C198.196 257.174 198.438 257.384 198.921 257.384C199.266 257.384 199.542 257.285 199.748 257.086C199.956 256.887 200.061 256.623 200.061 256.293V255.843Z" fill="white"/>
<path d="M223.743 209.709V214.337C223.743 214.866 223.624 215.329 223.386 215.727C223.151 216.125 222.81 216.43 222.363 216.642C221.916 216.854 221.388 216.96 220.778 216.96C219.858 216.96 219.144 216.725 218.635 216.256C218.126 215.783 217.871 215.137 217.871 214.318V209.709H219.383V214.088C219.383 214.639 219.494 215.044 219.716 215.301C219.938 215.559 220.305 215.688 220.817 215.688C221.313 215.688 221.672 215.559 221.894 215.301C222.119 215.04 222.231 214.633 222.231 214.078V209.709H223.743Z" fill="white"/>
<path d="M231.249 216.862H229.527L227.653 213.848L227.012 214.308V216.862H225.495V209.709H227.012V212.982L227.609 212.14L229.546 209.709H231.23L228.734 212.874L231.249 216.862Z" fill="white"/>
<path d="M257.857 242.908H260.695V246.617C260.235 246.767 259.801 246.871 259.393 246.93C258.989 246.992 258.575 247.023 258.15 247.023C257.071 247.023 256.245 246.707 255.675 246.074C255.107 245.438 254.823 244.526 254.823 243.339C254.823 242.184 255.153 241.284 255.812 240.638C256.474 239.992 257.39 239.669 258.561 239.669C259.295 239.669 260.003 239.816 260.685 240.109L260.181 241.323C259.659 241.062 259.116 240.931 258.552 240.931C257.896 240.931 257.371 241.151 256.976 241.592C256.581 242.032 256.384 242.624 256.384 243.368C256.384 244.144 256.542 244.738 256.859 245.149C257.178 245.557 257.642 245.761 258.248 245.761C258.565 245.761 258.886 245.728 259.212 245.663V244.17H257.857V242.908Z" fill="white"/>
<path d="M264.551 242.414C264.234 242.414 263.986 242.515 263.807 242.717C263.627 242.916 263.525 243.2 263.499 243.569H265.593C265.586 243.2 265.49 242.916 265.304 242.717C265.118 242.515 264.867 242.414 264.551 242.414ZM264.761 247.023C263.88 247.023 263.192 246.78 262.696 246.294C262.2 245.808 261.952 245.12 261.952 244.229C261.952 243.312 262.181 242.605 262.637 242.106C263.097 241.603 263.732 241.352 264.541 241.352C265.314 241.352 265.916 241.572 266.346 242.013C266.777 242.453 266.992 243.061 266.992 243.838V244.562H263.464C263.481 244.986 263.606 245.317 263.841 245.555C264.076 245.793 264.405 245.912 264.829 245.912C265.159 245.912 265.47 245.878 265.764 245.81C266.058 245.741 266.364 245.632 266.684 245.482V246.637C266.423 246.767 266.144 246.863 265.847 246.925C265.55 246.99 265.188 247.023 264.761 247.023Z" fill="white"/>
<path d="M271.259 241.352C271.461 241.352 271.629 241.367 271.763 241.396L271.65 242.795C271.53 242.763 271.383 242.747 271.21 242.747C270.734 242.747 270.362 242.869 270.094 243.114C269.83 243.358 269.698 243.701 269.698 244.141V246.925H268.206V241.455H269.336L269.556 242.375H269.63C269.799 242.068 270.028 241.822 270.315 241.636C270.605 241.447 270.92 241.352 271.259 241.352Z" fill="white"/>
<path d="M277.654 246.925H276.162V243.73C276.162 243.335 276.095 243.04 275.961 242.844C275.831 242.645 275.624 242.546 275.34 242.546C274.958 242.546 274.681 242.686 274.508 242.967C274.335 243.247 274.249 243.709 274.249 244.351V246.925H272.756V241.455H273.896L274.097 242.154H274.18C274.327 241.903 274.539 241.708 274.816 241.567C275.093 241.424 275.412 241.352 275.77 241.352C276.589 241.352 277.144 241.619 277.434 242.154H277.566C277.713 241.9 277.928 241.703 278.212 241.562C278.499 241.422 278.822 241.352 279.181 241.352C279.801 241.352 280.269 241.512 280.585 241.832C280.905 242.148 281.065 242.657 281.065 243.358V246.925H279.567V243.73C279.567 243.335 279.501 243.04 279.367 242.844C279.236 242.645 279.029 242.546 278.745 242.546C278.38 242.546 278.106 242.676 277.923 242.937C277.744 243.198 277.654 243.613 277.654 244.18V246.925Z" fill="white"/>
<path d="M286.075 246.925L285.786 246.181H285.747C285.496 246.498 285.237 246.718 284.969 246.842C284.705 246.963 284.359 247.023 283.932 247.023C283.407 247.023 282.993 246.873 282.689 246.573C282.389 246.273 282.239 245.845 282.239 245.291C282.239 244.71 282.441 244.283 282.846 244.009C283.253 243.732 283.867 243.578 284.686 243.549L285.635 243.52V243.28C285.635 242.725 285.351 242.448 284.783 242.448C284.346 242.448 283.833 242.58 283.242 242.844L282.748 241.836C283.377 241.507 284.076 241.342 284.842 241.342C285.576 241.342 286.139 241.502 286.53 241.822C286.922 242.141 287.117 242.627 287.117 243.28V246.925H286.075ZM285.635 244.391L285.057 244.41C284.624 244.423 284.301 244.502 284.089 244.645C283.877 244.789 283.771 245.007 283.771 245.301C283.771 245.722 284.012 245.932 284.495 245.932C284.84 245.932 285.116 245.832 285.322 245.633C285.53 245.434 285.635 245.17 285.635 244.841V244.391Z" fill="white"/>
<path d="M293.708 246.925H292.216V243.73C292.216 243.335 292.146 243.04 292.006 242.844C291.865 242.645 291.642 242.546 291.335 242.546C290.918 242.546 290.616 242.686 290.43 242.967C290.244 243.244 290.151 243.706 290.151 244.351V246.925H288.659V241.455H289.799L289.999 242.154H290.083C290.249 241.89 290.477 241.691 290.768 241.558C291.061 241.421 291.394 241.352 291.766 241.352C292.402 241.352 292.885 241.525 293.214 241.871C293.544 242.213 293.708 242.709 293.708 243.358V246.925Z" fill="white"/>
<path d="M294.462 241.455H296.096L297.129 244.532C297.217 244.8 297.277 245.116 297.31 245.482H297.339C297.375 245.146 297.445 244.829 297.549 244.532L298.562 241.455H300.162L297.848 247.625C297.636 248.196 297.332 248.623 296.938 248.907C296.546 249.191 296.088 249.333 295.563 249.333C295.305 249.333 295.052 249.305 294.804 249.249V248.065C294.984 248.108 295.18 248.129 295.392 248.129C295.656 248.129 295.886 248.047 296.081 247.884C296.28 247.724 296.435 247.481 296.546 247.155L296.634 246.886L294.462 241.455Z" fill="white"/>
<path d="M199.238 176.223C199.238 176.869 199.005 177.378 198.538 177.75C198.075 178.122 197.429 178.308 196.601 178.308C195.837 178.308 195.162 178.164 194.575 177.877V176.468C195.058 176.683 195.465 176.835 195.798 176.923C196.134 177.011 196.441 177.055 196.718 177.055C197.051 177.055 197.305 176.991 197.481 176.864C197.661 176.737 197.751 176.548 197.751 176.297C197.751 176.156 197.711 176.032 197.633 175.925C197.555 175.814 197.439 175.708 197.286 175.607C197.136 175.506 196.827 175.344 196.361 175.122C195.924 174.917 195.596 174.719 195.377 174.53C195.159 174.341 194.984 174.121 194.854 173.87C194.723 173.619 194.658 173.325 194.658 172.989C194.658 172.356 194.872 171.859 195.299 171.497C195.73 171.134 196.323 170.953 197.08 170.953C197.452 170.953 197.806 170.997 198.142 171.086C198.481 171.174 198.835 171.298 199.204 171.457L198.714 172.637C198.333 172.48 198.016 172.371 197.765 172.309C197.517 172.247 197.273 172.216 197.031 172.216C196.744 172.216 196.524 172.283 196.371 172.416C196.217 172.55 196.141 172.725 196.141 172.94C196.141 173.074 196.172 173.191 196.234 173.292C196.296 173.39 196.394 173.486 196.527 173.581C196.664 173.672 196.986 173.839 197.491 174.08C198.16 174.4 198.618 174.721 198.866 175.044C199.114 175.364 199.238 175.757 199.238 176.223Z" fill="white"/>
<path d="M203.422 178.308C202.779 178.308 202.275 178.074 201.91 177.608H201.831C201.884 178.065 201.91 178.329 201.91 178.401V180.617H200.417V172.739H201.631L201.841 173.449H201.91C202.259 172.907 202.776 172.637 203.461 172.637C204.107 172.637 204.612 172.886 204.978 173.385C205.343 173.884 205.526 174.578 205.526 175.465C205.526 176.049 205.439 176.556 205.266 176.987C205.097 177.417 204.854 177.745 204.537 177.97C204.221 178.195 203.849 178.308 203.422 178.308ZM202.981 173.831C202.613 173.831 202.343 173.945 202.174 174.173C202.004 174.398 201.916 174.772 201.91 175.294V175.455C201.91 176.042 201.996 176.463 202.169 176.717C202.345 176.972 202.622 177.099 203.001 177.099C203.669 177.099 204.004 176.548 204.004 175.445C204.004 174.907 203.921 174.504 203.754 174.237C203.591 173.966 203.334 173.831 202.981 173.831Z" fill="white"/>
<path d="M210.233 178.21L209.944 177.466H209.905C209.654 177.783 209.394 178.003 209.127 178.127C208.863 178.247 208.517 178.308 208.09 178.308C207.564 178.308 207.15 178.158 206.847 177.858C206.547 177.557 206.397 177.13 206.397 176.576C206.397 175.995 206.599 175.568 207.003 175.294C207.411 175.016 208.024 174.863 208.843 174.834L209.792 174.804V174.565C209.792 174.01 209.509 173.733 208.941 173.733C208.504 173.733 207.99 173.865 207.4 174.129L206.905 173.121C207.535 172.792 208.233 172.627 209 172.627C209.734 172.627 210.296 172.787 210.688 173.106C211.079 173.426 211.275 173.912 211.275 174.565V178.21H210.233ZM209.792 175.675L209.215 175.695C208.781 175.708 208.458 175.786 208.246 175.93C208.034 176.073 207.928 176.292 207.928 176.585C207.928 177.006 208.169 177.217 208.652 177.217C208.998 177.217 209.274 177.117 209.479 176.918C209.688 176.719 209.792 176.455 209.792 176.125V175.675Z" fill="white"/>
<path d="M212.753 171.325C212.753 170.839 213.023 170.596 213.565 170.596C214.106 170.596 214.377 170.839 214.377 171.325C214.377 171.557 214.309 171.738 214.172 171.868C214.038 171.996 213.836 172.059 213.565 172.059C213.023 172.059 212.753 171.815 212.753 171.325ZM214.309 178.21H212.816V172.739H214.309V178.21Z" fill="white"/>
<path d="M220.929 178.21H219.437V175.015C219.437 174.62 219.366 174.325 219.226 174.129C219.086 173.93 218.862 173.831 218.556 173.831C218.138 173.831 217.837 173.971 217.651 174.251C217.465 174.529 217.372 174.99 217.372 175.636V178.21H215.879V172.739H217.019L217.22 173.439H217.303C217.47 173.175 217.698 172.976 217.988 172.842C218.282 172.705 218.615 172.637 218.986 172.637C219.623 172.637 220.105 172.81 220.435 173.155C220.764 173.498 220.929 173.994 220.929 174.643V178.21Z" fill="white"/>
<path d="M258.101 178.214V182.843C258.101 183.371 257.982 183.835 257.744 184.233C257.509 184.63 257.168 184.935 256.721 185.148C256.274 185.36 255.746 185.466 255.136 185.466C254.216 185.466 253.501 185.231 252.992 184.761C252.484 184.288 252.229 183.642 252.229 182.823V178.214H253.741V182.593C253.741 183.145 253.852 183.549 254.074 183.807C254.296 184.065 254.663 184.193 255.175 184.193C255.671 184.193 256.029 184.065 256.251 183.807C256.476 183.546 256.589 183.138 256.589 182.584V178.214H258.101Z" fill="white"/>
<path d="M264.232 185.368L263.713 183.665H261.105L260.587 185.368H258.952L261.477 178.185H263.332L265.866 185.368H264.232ZM263.351 182.393C262.872 180.85 262.601 179.977 262.539 179.775C262.48 179.573 262.438 179.413 262.412 179.295C262.304 179.713 261.996 180.745 261.487 182.393H263.351Z" fill="white"/>
<path d="M270.891 185.368H266.771V178.214H270.891V179.457H268.288V181.028H270.71V182.27H268.288V184.115H270.891V185.368Z" fill="white"/>
<path d="M298.088 292.74H300.315C301.329 292.74 302.065 292.885 302.521 293.175C302.981 293.462 303.211 293.921 303.211 294.55C303.211 294.977 303.11 295.328 302.908 295.602C302.709 295.876 302.443 296.041 302.11 296.096V296.145C302.564 296.246 302.89 296.436 303.089 296.713C303.291 296.99 303.392 297.359 303.392 297.819C303.392 298.471 303.156 298.98 302.683 299.345C302.213 299.711 301.574 299.893 300.765 299.893H298.088V292.74ZM299.605 295.573H300.486C300.897 295.573 301.194 295.509 301.376 295.382C301.562 295.255 301.655 295.044 301.655 294.751C301.655 294.477 301.554 294.281 301.352 294.164C301.153 294.043 300.837 293.983 300.403 293.983H299.605V295.573ZM299.605 296.776V298.641H300.594C301.011 298.641 301.319 298.561 301.518 298.401C301.717 298.241 301.817 297.996 301.817 297.667C301.817 297.073 301.393 296.776 300.545 296.776H299.605Z" fill="white"/>
<path d="M307.757 294.32C307.959 294.32 308.127 294.335 308.261 294.364L308.148 295.764C308.028 295.731 307.881 295.715 307.708 295.715C307.232 295.715 306.86 295.837 306.592 296.082C306.328 296.326 306.196 296.669 306.196 297.109V299.893H304.704V294.423H305.834L306.054 295.343H306.128C306.297 295.036 306.526 294.79 306.813 294.604C307.103 294.415 307.418 294.32 307.757 294.32Z" fill="white"/>
<path d="M312.728 299.893L312.44 299.15H312.401C312.149 299.466 311.89 299.686 311.623 299.81C311.358 299.931 311.013 299.991 310.585 299.991C310.06 299.991 309.646 299.841 309.342 299.541C309.042 299.241 308.892 298.814 308.892 298.259C308.892 297.678 309.094 297.251 309.499 296.977C309.907 296.7 310.52 296.546 311.339 296.517L312.288 296.488V296.248C312.288 295.693 312.004 295.416 311.437 295.416C310.999 295.416 310.486 295.548 309.895 295.813L309.401 294.805C310.031 294.475 310.729 294.31 311.495 294.31C312.229 294.31 312.792 294.47 313.183 294.79C313.575 295.11 313.771 295.596 313.771 296.248V299.893H312.728ZM312.288 297.359L311.711 297.378C311.277 297.391 310.954 297.47 310.742 297.613C310.53 297.757 310.424 297.975 310.424 298.269C310.424 298.69 310.665 298.9 311.148 298.9C311.494 298.9 311.769 298.801 311.975 298.602C312.184 298.403 312.288 298.138 312.288 297.809V297.359Z" fill="white"/>
<path d="M319.119 299.893H314.798V299.013L317.333 295.563H314.95V294.423H319.031V295.392L316.564 298.753H319.119V299.893Z" fill="white"/>
<path d="M320.141 293.009C320.141 292.523 320.412 292.28 320.954 292.28C321.495 292.28 321.766 292.523 321.766 293.009C321.766 293.24 321.697 293.421 321.56 293.552C321.427 293.679 321.224 293.743 320.954 293.743C320.412 293.743 320.141 293.498 320.141 293.009ZM321.697 299.893H320.205V294.423H321.697V299.893Z" fill="white"/>
<path d="M324.76 299.893H323.268V292.28H324.76V299.893Z" fill="white"/>
</g>
<defs>
<filter id="filter0_d" x="0" y="0" width="638" height="488" filterUnits="userSpaceOnUse" color-interpolation-filters="sRGB">
<feFlood flood-opacity="0" result="BackgroundImageFix"/>
<feColorMatrix in="SourceAlpha" type="matrix" values="0 0 0 0 0 0 0 0 0 0 0 0 0 0 0 0 0 0 127 0" result="hardAlpha"/>
<feOffset dy="44"/>
<feGaussianBlur stdDeviation="22"/>
<feColorMatrix type="matrix" values="0 0 0 0 0.129412 0 0 0 0 0.14902 0 0 0 0 0.309804 0 0 0 0.2 0"/>
<feBlend mode="normal" in2="BackgroundImageFix" result="effect1_dropShadow"/>
<feBlend mode="normal" in="SourceGraphic" in2="effect1_dropShadow" result="shape"/>
</filter>
</defs>
</svg>
