<svg width="1440" height="537" viewBox="0 0 1440 537" fill="none" xmlns="http://www.w3.org/2000/svg">
<g clip-path="url(#clip0)">
<g filter="url(#filter0_f)">
<path d="M891.406 9.07739H1021.75C1029.92 9.07739 1036.55 15.7083 1036.55 23.8879V53.0311H891.406V9.07739Z" fill="#F1F1F1" stroke="#7C8FAD"/>
<path d="M893.316 9.07739H748.17V53.0311H893.316V9.07739Z" fill="#F1F1F1" stroke="#7C8FAD"/>
<path d="M893.316 53.0312H748.17V96.985H893.316V53.0312Z" fill="white" stroke="#7C8FAD"/>
<path d="M1036.55 53.0312H891.406V96.985H1036.55V53.0312Z" fill="white" stroke="#7C8FAD"/>
<path d="M1036.55 96.9849H891.406V139.983H1036.55V96.9849Z" fill="white" stroke="#7C8FAD"/>
<path d="M893.316 96.9849H748.17V139.983H893.316V96.9849Z" fill="white" stroke="#7C8FAD"/>
<path d="M893.316 139.983H748.17V183.937H893.316V139.983Z" fill="white" stroke="#7C8FAD"/>
<path d="M1036.55 139.983H891.406V183.937H1036.55V139.983Z" fill="white" stroke="#7C8FAD"/>
<path d="M1036.55 183.937H891.406V226.935H1036.55V183.937Z" fill="white" stroke="#7C8FAD"/>
<path d="M893.316 183.937H748.17V226.935H893.316V183.937Z" fill="white" stroke="#7C8FAD"/>
<path d="M893.316 226.935H748.17V270.889H893.316V226.935Z" fill="white" stroke="#7C8FAD"/>
<path d="M1036.55 226.935H891.406V270.889H1036.55V226.935Z" fill="white" stroke="#7C8FAD"/>
<path d="M1036.55 270.889H891.406V314.842H1036.55V270.889Z" fill="white" stroke="#7C8FAD"/>
<path d="M893.316 270.889H748.17V314.842H893.316V270.889Z" fill="white" stroke="#7C8FAD"/>
<path d="M1036.55 313.887H891.406V357.841H1036.55V313.887Z" fill="white" stroke="#7C8FAD"/>
<path d="M893.316 313.887H748.17V357.841H893.316V313.887Z" fill="white" stroke="#7C8FAD"/>
<path d="M893.316 357.841H748.17V401.795H893.316V357.841Z" fill="white" stroke="#7C8FAD"/>
<path d="M1036.55 357.841H891.406V401.795H1036.55V357.841Z" fill="white" stroke="#7C8FAD"/>
<path d="M891.406 400.839H1036.55V429.982C1036.55 438.161 1029.92 444.793 1021.75 444.793H891.406V400.839Z" fill="white" stroke="#7C8FAD"/>
<path d="M893.316 400.839H748.17V444.793H893.316V400.839Z" fill="white" stroke="#7C8FAD"/>
<path d="M604.934 9.07739H459.788V53.0311H604.934V9.07739Z" fill="#F1F1F1" stroke="#7C8FAD"/>
<path d="M748.17 9.07739H603.024V53.0311H748.17V9.07739Z" fill="#F1F1F1" stroke="#7C8FAD"/>
<path d="M604.934 53.0312H459.788V96.0295H604.934V53.0312Z" fill="white" stroke="#7C8FAD"/>
<path d="M748.17 53.0312H603.024V96.0295H748.17V53.0312Z" fill="white" stroke="#7C8FAD"/>
<path d="M604.934 96.0293H459.788V139.983H604.934V96.0293Z" fill="white" stroke="#7C8FAD"/>
<path d="M748.17 96.0293H603.024V139.983H748.17V96.0293Z" fill="white" stroke="#7C8FAD"/>
<path d="M604.934 139.983H459.788V182.981H604.934V139.983Z" fill="white" stroke="#7C8FAD"/>
<path d="M748.17 139.983H603.024V182.981H748.17V139.983Z" fill="white" stroke="#7C8FAD"/>
<path d="M604.934 182.981H459.788V226.935H604.934V182.981Z" fill="white" stroke="#7C8FAD"/>
<path d="M748.17 182.981H603.024V226.935H748.17V182.981Z" fill="white" stroke="#7C8FAD"/>
<path d="M604.934 226.935H459.788V270.889H604.934V226.935Z" fill="white" stroke="#7C8FAD"/>
<path d="M748.17 226.935H603.024V270.889H748.17V226.935Z" fill="white" stroke="#7C8FAD"/>
<path d="M604.934 269.933H459.788V313.887H604.934V269.933Z" fill="white" stroke="#7C8FAD"/>
<path d="M748.17 269.933H603.024V313.887H748.17V269.933Z" fill="white" stroke="#7C8FAD"/>
<path d="M604.934 313.887H459.788V357.841H604.934V313.887Z" fill="white" stroke="#7C8FAD"/>
<path d="M748.17 313.887H603.024V357.841H748.17V313.887Z" fill="white" stroke="#7C8FAD"/>
<path d="M604.934 357.841H459.788V400.839H604.934V357.841Z" fill="white" stroke="#7C8FAD"/>
<path d="M748.17 357.841H603.024V400.839H748.17V357.841Z" fill="white" stroke="#7C8FAD"/>
<path d="M604.934 400.839H459.788V444.793H604.934V400.839Z" fill="white" stroke="#7C8FAD"/>
<path d="M603.024 400.839H748.17V441.448C748.17 443.295 746.673 444.793 744.828 444.793H603.024V400.839Z" fill="white" stroke="#7C8FAD"/>
<path d="M458.833 9.07739H369.072V53.0311H458.833V9.07739Z" fill="#EDF3FD" stroke="#7C8FAD"/>
<path d="M458.833 53.0312H369.072V96.0295H458.833V53.0312Z" fill="#F0F0F0" stroke="#7C8FAD"/>
<path d="M458.833 96.0293H369.072V139.983H458.833V96.0293Z" fill="#F0F0F0" stroke="#7C8FAD"/>
<path d="M458.833 139.983H369.072V182.981H458.833V139.983Z" fill="#F0F0F0" stroke="#7C8FAD"/>
<path d="M458.833 182.981H369.072V226.935H458.833V182.981Z" fill="#F0F0F0" stroke="#7C8FAD"/>
<path d="M458.833 226.935H369.072V270.889H458.833V226.935Z" fill="#F0F0F0" stroke="#7C8FAD"/>
<path d="M458.833 269.933H369.072V313.887H458.833V269.933Z" fill="#F0F0F0" stroke="#7C8FAD"/>
<path d="M458.833 313.887H369.072V357.841H458.833V313.887Z" fill="#F0F0F0" stroke="#7C8FAD"/>
<path d="M458.833 357.841H369.072V400.839H458.833V357.841Z" fill="#F0F0F0" stroke="#7C8FAD"/>
<path d="M369.072 400.839H458.833V444.793H383.873C375.699 444.793 369.072 438.161 369.072 429.982V400.839Z" fill="#F0F0F0" stroke="#7C8FAD"/>
</g>
<g filter="url(#filter1_dddf)">
<path d="M937.719 32.4875H847.003C842.784 32.4875 839.363 35.9099 839.363 40.1317V69.7527C839.363 73.9744 842.784 77.3968 847.003 77.3968H937.719C941.938 77.3968 945.358 73.9744 945.358 69.7527V40.1317C945.358 35.9099 941.938 32.4875 937.719 32.4875Z" fill="white"/>
</g>
<g filter="url(#filter2_f)">
<path d="M863.572 51.414C863.572 52.3515 863.288 53.1487 862.72 53.8056C862.153 54.4625 861.356 54.9142 860.33 55.1605V55.2222C861.541 55.3727 862.457 55.7421 863.079 56.3307C863.702 56.9123 864.012 57.6992 864.012 58.6914C864.012 60.1353 863.49 61.261 862.443 62.0684C861.397 62.8691 859.903 63.2693 857.961 63.2693C856.333 63.2693 854.89 62.9991 853.632 62.4585V59.7589C854.213 60.0532 854.853 60.2927 855.55 60.4775C856.248 60.6622 856.938 60.7546 857.622 60.7546C858.669 60.7546 859.441 60.5767 859.941 60.2208C860.44 59.865 860.689 59.2936 860.689 58.5067C860.689 57.8019 860.402 57.3024 859.828 57.0081C859.253 56.7139 858.336 56.5668 857.079 56.5668H855.94V54.1341H857.099C858.262 54.1341 859.11 53.9835 859.643 53.6824C860.183 53.3746 860.453 52.851 860.453 52.1121C860.453 50.9761 859.742 50.4082 858.32 50.4082C857.827 50.4082 857.325 50.4903 856.811 50.6545C856.306 50.8188 855.742 51.1027 855.119 51.5064L853.653 49.3201C855.02 48.3348 856.651 47.842 858.546 47.842C860.098 47.842 861.322 48.1569 862.218 48.7864C863.121 49.416 863.572 50.2918 863.572 51.414Z" fill="#21264F"/>
<path d="M876.158 63.0641H865.675V60.8572L869.439 57.0492C870.553 55.9064 871.282 55.1161 871.624 54.6781C871.966 54.2333 872.212 53.8228 872.363 53.4464C872.513 53.07 872.588 52.68 872.588 52.2763C872.588 51.6741 872.42 51.2259 872.086 50.9316C871.758 50.6374 871.317 50.4903 870.763 50.4903C870.181 50.4903 869.617 50.6237 869.07 50.8906C868.522 51.1575 867.951 51.5372 867.357 52.0299L865.634 49.9874C866.372 49.3578 866.984 48.913 867.47 48.653C867.955 48.3929 868.485 48.1945 869.06 48.0576C869.634 47.9139 870.277 47.842 870.988 47.842C871.925 47.842 872.753 48.0132 873.471 48.3552C874.189 48.6974 874.746 49.1764 875.143 49.7923C875.539 50.4082 875.738 51.113 875.738 51.9067C875.738 52.5978 875.615 53.248 875.368 53.857C875.128 54.4592 874.753 55.0784 874.239 55.7148C873.733 56.3512 872.838 57.2579 871.552 58.4349L869.623 60.2516V60.3953H876.158V63.0641Z" fill="#21264F"/>
<path d="M885.513 63.0641H882.344V54.3805L882.374 52.9537L882.426 51.3935C881.899 51.9205 881.533 52.266 881.328 52.4303L879.605 53.8159L878.076 51.9067L882.908 48.0576H885.513V63.0641Z" fill="#21264F"/>
<path d="M893.545 60.8571C893.19 62.2394 892.588 63.8783 891.74 65.7737H889.483C889.928 63.9535 890.272 62.236 890.519 60.6211H893.391L893.545 60.8571Z" fill="#21264F"/>
<path d="M906.255 63.0641H895.771V60.8572L899.536 57.0492C900.65 55.9064 901.379 55.1161 901.721 54.6781C902.063 54.2333 902.309 53.8228 902.459 53.4464C902.61 53.07 902.685 52.68 902.685 52.2763C902.685 51.6741 902.517 51.2259 902.182 50.9316C901.853 50.6374 901.412 50.4903 900.858 50.4903C900.278 50.4903 899.714 50.6237 899.166 50.8906C898.619 51.1575 898.048 51.5372 897.453 52.0299L895.73 49.9874C896.469 49.3578 897.081 48.913 897.566 48.653C898.052 48.3929 898.582 48.1945 899.156 48.0576C899.731 47.9139 900.373 47.842 901.085 47.842C902.022 47.842 902.848 48.0132 903.567 48.3552C904.285 48.6974 904.842 49.1764 905.239 49.7923C905.636 50.4082 905.834 51.113 905.834 51.9067C905.834 52.5978 905.71 53.248 905.465 53.857C905.225 54.4592 904.849 55.0784 904.336 55.7148C903.83 56.3512 902.934 57.2579 901.649 58.4349L899.72 60.2516V60.3953H906.255V63.0641Z" fill="#21264F"/>
<path d="M915.61 63.0641H912.44V54.3805L912.471 52.9537L912.522 51.3935C911.996 51.9205 911.63 52.266 911.424 52.4303L909.701 53.8159L908.173 51.9067L913.004 48.0576H915.61V63.0641Z" fill="#21264F"/>
<path d="M930.258 63.0641H919.774V60.8572L923.539 57.0492C924.654 55.9064 925.381 55.1161 925.723 54.6781C926.066 54.2333 926.312 53.8228 926.462 53.4464C926.612 53.07 926.688 52.68 926.688 52.2763C926.688 51.6741 926.521 51.2259 926.185 50.9316C925.857 50.6374 925.416 50.4903 924.862 50.4903C924.28 50.4903 923.717 50.6237 923.17 50.8906C922.623 51.1575 922.052 51.5372 921.457 52.0299L919.733 49.9874C920.471 49.3578 921.083 48.913 921.569 48.653C922.055 48.3929 922.585 48.1945 923.159 48.0576C923.733 47.9139 924.377 47.842 925.087 47.842C926.025 47.842 926.852 48.0132 927.57 48.3552C928.288 48.6974 928.846 49.1764 929.242 49.7923C929.638 50.4082 929.837 51.113 929.837 51.9067C929.837 52.5978 929.714 53.248 929.468 53.857C929.229 54.4592 928.853 55.0784 928.34 55.7148C927.834 56.3512 926.938 57.2579 925.652 58.4349L923.724 60.2516V60.3953H930.258V63.0641Z" fill="#21264F"/>
</g>
<g filter="url(#filter3_dddf)">
<path d="M447.851 3.82202H357.135C352.916 3.82202 349.496 7.24441 349.496 11.4661V40.1316C349.496 44.3534 352.916 47.7758 357.135 47.7758H447.851C452.071 47.7758 455.491 44.3534 455.491 40.1316V11.4661C455.491 7.24441 452.071 3.82202 447.851 3.82202Z" fill="white"/>
</g>
<g filter="url(#filter4_f)">
<path d="M375.932 19.198C377.368 19.198 378.523 19.5265 379.398 20.1834C380.28 20.8335 380.722 21.7128 380.722 22.8213C380.722 23.5877 380.509 24.272 380.086 24.8741C379.662 25.4695 378.978 26.0033 378.034 26.4754C379.155 27.0776 379.959 27.7072 380.445 28.3641C380.937 29.0141 381.184 29.7292 381.184 30.5093C381.184 31.7411 380.701 32.7333 379.737 33.4859C378.773 34.2318 377.504 34.6047 375.932 34.6047C374.29 34.6047 373.001 34.2558 372.064 33.5578C371.128 32.8599 370.659 31.871 370.659 30.5914C370.659 29.7361 370.884 28.9765 371.336 28.3128C371.794 27.649 372.526 27.0639 373.531 26.5576C372.676 26.0169 372.06 25.4388 371.684 24.8228C371.308 24.207 371.121 23.533 371.121 22.8008C371.121 21.7265 371.565 20.8574 372.454 20.1936C373.343 19.5299 374.502 19.198 375.932 19.198ZM373.592 30.4067C373.592 30.9952 373.797 31.4536 374.208 31.782C374.619 32.1106 375.179 32.2748 375.891 32.2748C376.676 32.2748 377.265 32.1071 377.654 31.7718C378.044 31.4297 378.24 30.9815 378.24 30.4272C378.24 29.9688 378.044 29.5411 377.654 29.1442C377.271 28.7404 376.646 28.3128 375.777 27.8611C374.321 28.5317 373.592 29.3803 373.592 30.4067ZM375.911 21.5178C375.37 21.5178 374.933 21.6581 374.598 21.9386C374.269 22.2123 374.105 22.5819 374.105 23.0471C374.105 23.4577 374.236 23.8272 374.495 24.1557C374.762 24.4773 375.24 24.8092 375.932 25.1513C376.601 24.8366 377.07 24.515 377.336 24.1865C377.604 23.858 377.736 23.4782 377.736 23.0471C377.736 22.575 377.566 22.202 377.224 21.9283C376.882 21.6546 376.444 21.5178 375.911 21.5178Z" fill="#21264F"/>
<path d="M393.246 34.3986H382.763V32.1917L386.527 28.3837C387.643 27.2409 388.37 26.4506 388.712 26.0126C389.054 25.5678 389.3 25.1573 389.451 24.7809C389.601 24.4045 389.677 24.0145 389.677 23.6108C389.677 23.0086 389.509 22.5604 389.174 22.2661C388.846 21.9719 388.405 21.8247 387.851 21.8247C387.269 21.8247 386.705 21.9582 386.159 22.2251C385.612 22.492 385.041 22.8717 384.446 23.3644L382.722 21.3218C383.46 20.6922 384.072 20.2475 384.558 19.9875C385.043 19.7274 385.573 19.529 386.148 19.3921C386.722 19.2484 387.366 19.1765 388.076 19.1765C389.013 19.1765 389.841 19.3476 390.559 19.6897C391.277 20.0319 391.835 20.5109 392.231 21.1268C392.627 21.7426 392.826 22.4474 392.826 23.2412C392.826 23.9323 392.703 24.5824 392.456 25.1915C392.218 25.7937 391.841 26.4129 391.329 27.0493C390.822 27.6857 389.927 28.5924 388.641 29.7694L386.713 31.5861V31.7298H393.246V34.3986Z" fill="#21264F"/>
<path d="M398.632 32.1916C398.276 33.5738 397.674 35.2127 396.826 37.1082H394.57C395.015 35.288 395.359 33.5705 395.606 31.9556H398.478L398.632 32.1916Z" fill="#21264F"/>
<path d="M408.695 34.3986H405.525V25.7149L405.556 24.2882L405.607 22.728C405.08 23.255 404.714 23.6005 404.509 23.7647L402.787 25.1504L401.258 23.2412L406.09 19.3921H408.695V34.3986Z" fill="#21264F"/>
<path d="M422.758 22.7485C422.758 23.686 422.474 24.4832 421.907 25.1401C421.339 25.797 420.542 26.2487 419.516 26.495V26.5566C420.727 26.7071 421.643 27.0766 422.266 27.6651C422.888 28.2467 423.2 29.0337 423.2 30.0259C423.2 31.4698 422.676 32.5955 421.63 33.4029C420.583 34.2035 419.09 34.6038 417.147 34.6038C415.519 34.6038 414.076 34.3336 412.818 33.7929V31.0934C413.399 31.3877 414.039 31.6272 414.736 31.812C415.434 31.9967 416.125 32.0891 416.808 32.0891C417.855 32.0891 418.627 31.9111 419.127 31.5553C419.626 31.1995 419.876 30.6281 419.876 29.8412C419.876 29.1363 419.588 28.6369 419.014 28.3426C418.439 28.0484 417.524 27.9012 416.265 27.9012H415.126V25.4686H416.285C417.448 25.4686 418.296 25.318 418.829 25.0169C419.369 24.709 419.64 24.1855 419.64 23.4465C419.64 22.3106 418.928 21.7426 417.506 21.7426C417.014 21.7426 416.511 21.8247 415.999 21.989C415.493 22.1532 414.928 22.4372 414.306 22.8409L412.839 20.6546C414.206 19.6693 415.837 19.1765 417.732 19.1765C419.284 19.1765 420.509 19.4914 421.404 20.1209C422.307 20.7504 422.758 21.6263 422.758 22.7485Z" fill="#21264F"/>
<path d="M432.698 34.3986H429.529V25.7149L429.559 24.2882L429.61 22.728C429.084 23.255 428.718 23.6005 428.513 23.7647L426.789 25.1504L425.261 23.2412L430.092 19.3921H432.698V34.3986Z" fill="#21264F"/>
</g>
<g filter="url(#filter5_dddf)">
<path d="M538.568 408.005H447.851C443.632 408.005 440.212 411.428 440.212 415.65V445.271C440.212 449.492 443.632 452.915 447.851 452.915H538.568C542.787 452.915 546.207 449.492 546.207 445.271V415.65C546.207 411.428 542.787 408.005 538.568 408.005Z" fill="white"/>
</g>
<g filter="url(#filter6_f)">
<path d="M463.313 438.582H460.144V429.898L460.175 428.471L460.226 426.911C459.7 427.439 459.333 427.784 459.129 427.948L457.405 429.333L455.876 427.424L460.708 423.575H463.313V438.582Z" fill="#21264F"/>
<path d="M477.879 431.078C477.879 433.699 477.449 435.64 476.587 436.898C475.733 438.157 474.412 438.787 472.627 438.787C470.897 438.787 469.592 438.137 468.709 436.837C467.834 435.537 467.396 433.617 467.396 431.078C467.396 428.43 467.823 426.48 468.679 425.227C469.534 423.969 470.849 423.339 472.627 423.339C474.358 423.339 475.664 423.996 476.546 425.31C477.435 426.623 477.879 428.547 477.879 431.078ZM470.546 431.078C470.546 432.919 470.702 434.24 471.018 435.041C471.338 435.835 471.876 436.231 472.627 436.231C473.367 436.231 473.899 435.828 474.228 435.02C474.556 434.212 474.721 432.898 474.721 431.078C474.721 429.238 474.553 427.917 474.217 427.117C473.89 426.309 473.36 425.905 472.627 425.905C471.883 425.905 471.349 426.309 471.028 427.117C470.706 427.917 470.546 429.238 470.546 431.078Z" fill="#21264F"/>
<path d="M487.317 438.582H484.147V429.898L484.178 428.471L484.23 426.911C483.702 427.439 483.337 427.784 483.131 427.948L481.409 429.333L479.88 427.424L484.712 423.575H487.317V438.582Z" fill="#21264F"/>
<path d="M495.349 436.374C494.993 437.757 494.392 439.396 493.544 441.292H491.286C491.731 439.471 492.076 437.753 492.322 436.138H495.195L495.349 436.374Z" fill="#21264F"/>
<path d="M508.058 438.582H497.574V436.374L501.34 432.567C502.454 431.424 503.183 430.634 503.524 430.196C503.866 429.751 504.113 429.34 504.263 428.964C504.413 428.588 504.489 428.197 504.489 427.794C504.489 427.192 504.321 426.744 503.986 426.45C503.657 426.155 503.216 426.008 502.662 426.008C502.082 426.008 501.517 426.141 500.97 426.408C500.423 426.675 499.852 427.055 499.257 427.547L497.533 425.505C498.272 424.876 498.885 424.431 499.37 424.171C499.856 423.911 500.386 423.712 500.96 423.575C501.534 423.432 502.177 423.359 502.888 423.359C503.825 423.359 504.652 423.53 505.37 423.872C506.088 424.216 506.646 424.694 507.042 425.31C507.44 425.926 507.637 426.631 507.637 427.424C507.637 428.116 507.514 428.766 507.269 429.374C507.029 429.976 506.653 430.596 506.14 431.233C505.634 431.869 504.738 432.776 503.453 433.952L501.524 435.77V435.913H508.058V438.582Z" fill="#21264F"/>
<path d="M517.414 438.582H514.243V429.898L514.275 428.471L514.325 426.911C513.799 427.439 513.434 427.784 513.228 427.948L511.505 429.333L509.977 427.424L514.808 423.575H517.414V438.582Z" fill="#21264F"/>
<path d="M521.476 432.208C521.476 429.238 522.101 427.028 523.352 425.577C524.611 424.126 526.492 423.401 528.995 423.401C529.849 423.401 530.52 423.452 531.005 423.554V426.09C530.397 425.954 529.794 425.885 529.199 425.885C528.112 425.885 527.223 426.049 526.532 426.378C525.848 426.706 525.335 427.192 524.994 427.835C524.652 428.478 524.45 429.392 524.388 430.576H524.522C525.199 429.413 526.283 428.831 527.773 428.831C529.114 428.831 530.164 429.251 530.923 430.093C531.682 430.935 532.062 432.099 532.062 433.584C532.062 435.184 531.61 436.454 530.708 437.391C529.804 438.322 528.554 438.787 526.953 438.787C525.845 438.787 524.877 438.53 524.05 438.017C523.23 437.504 522.593 436.755 522.142 435.77C521.697 434.784 521.476 433.597 521.476 432.208ZM526.891 436.252C527.568 436.252 528.089 436.026 528.45 435.575C528.813 435.116 528.995 434.465 528.995 433.625C528.995 432.892 528.824 432.317 528.482 431.9C528.147 431.476 527.637 431.264 526.953 431.264C526.31 431.264 525.759 431.472 525.301 431.889C524.85 432.307 524.624 432.792 524.624 433.347C524.624 434.162 524.836 434.849 525.26 435.41C525.692 435.971 526.235 436.252 526.891 436.252Z" fill="#21264F"/>
</g>
<g filter="url(#filter7_dddf)">
<path d="M1390.34 46.8203H1299.63C1295.41 46.8203 1291.99 50.2427 1291.99 54.4644V84.0854C1291.99 88.3072 1295.41 91.7296 1299.63 91.7296H1390.34C1394.56 91.7296 1397.98 88.3072 1397.98 84.0854V54.4644C1397.98 50.2427 1394.56 46.8203 1390.34 46.8203Z" fill="white"/>
</g>
<g filter="url(#filter8_f)">
<path d="M1322.79 77.3968H1312.3V75.19L1316.06 71.382C1317.18 70.2392 1317.91 69.4489 1318.25 69.0109C1318.59 68.5661 1318.84 68.1556 1318.98 67.7792C1319.14 67.4028 1319.21 67.0128 1319.21 66.6091C1319.21 66.0069 1319.04 65.5587 1318.71 65.2644C1318.38 64.9702 1317.94 64.823 1317.39 64.823C1316.81 64.823 1316.24 64.9565 1315.7 65.2234C1315.15 65.4903 1314.57 65.87 1313.98 66.3626L1312.26 64.3201C1313 63.6905 1313.61 63.2457 1314.1 62.9858C1314.58 62.7257 1315.11 62.5273 1315.68 62.3904C1316.26 62.2467 1316.9 62.1748 1317.61 62.1748C1318.55 62.1748 1319.38 62.3459 1320.09 62.688C1320.82 63.0302 1321.37 63.5092 1321.76 64.1251C1322.16 64.7409 1322.37 65.4457 1322.37 66.2395C1322.37 66.9306 1322.24 67.5807 1321.99 68.1898C1321.75 68.7919 1321.38 69.4112 1320.87 70.0476C1320.36 70.684 1319.46 71.5906 1318.17 72.7677L1316.25 74.5844V74.7281H1322.79V77.3968Z" fill="#21264F"/>
<path d="M1332.13 77.3969H1328.97V68.7132L1329 67.2864L1329.05 65.7263C1328.52 66.2532 1328.16 66.5988 1327.95 66.763L1326.23 68.1487L1324.7 66.2395L1329.54 62.3904H1332.13V77.3969Z" fill="#21264F"/>
<path d="M1340.17 75.1899C1339.81 76.5721 1339.21 78.211 1338.37 80.1065H1336.11C1336.55 78.2863 1336.9 76.5688 1337.15 74.9539H1340.01L1340.17 75.1899Z" fill="#21264F"/>
<path d="M1352.82 68.7952C1352.82 71.7514 1352.2 73.9583 1350.95 75.4158C1349.7 76.8732 1347.82 77.602 1345.3 77.602C1344.41 77.602 1343.74 77.5541 1343.28 77.4584V74.9128C1343.85 75.0565 1344.45 75.1284 1345.08 75.1284C1346.14 75.1284 1347.01 74.9743 1347.7 74.6665C1348.39 74.3517 1348.9 73.8624 1349.26 73.1986C1349.63 72.528 1349.84 71.6077 1349.9 70.4376H1349.77C1349.38 71.0808 1348.92 71.5324 1348.4 71.7925C1347.88 72.0525 1347.23 72.1825 1346.45 72.1825C1345.14 72.1825 1344.11 71.7651 1343.36 70.9302C1342.61 70.0886 1342.24 68.9218 1342.24 67.4301C1342.24 65.822 1342.69 64.5526 1343.59 63.6221C1344.51 62.6846 1345.76 62.2158 1347.33 62.2158C1348.43 62.2158 1349.41 62.4758 1350.23 62.9959C1351.07 63.516 1351.71 64.2721 1352.15 65.2643C1352.6 66.2497 1352.82 67.4267 1352.82 68.7952ZM1347.39 64.7614C1346.73 64.7614 1346.22 64.9872 1345.86 65.4389C1345.48 65.8904 1345.3 66.5405 1345.3 67.3891C1345.3 68.1144 1345.46 68.6892 1345.8 69.1135C1346.13 69.5377 1346.65 69.7499 1347.33 69.7499C1347.98 69.7499 1348.52 69.5411 1348.98 69.1237C1349.44 68.6995 1349.67 68.2136 1349.67 67.6662C1349.67 66.8519 1349.46 66.1642 1349.03 65.603C1348.6 65.042 1348.05 64.7614 1347.39 64.7614Z" fill="#21264F"/>
<path d="M1359.57 62.1953C1361 62.1953 1362.16 62.5238 1363.03 63.1807C1363.91 63.8308 1364.36 64.7101 1364.36 65.8186C1364.36 66.585 1364.14 67.2693 1363.72 67.8715C1363.3 68.4668 1362.61 69.0006 1361.67 69.4727C1362.8 70.0749 1363.6 70.7045 1364.08 71.3614C1364.57 72.0114 1364.82 72.7265 1364.82 73.5066C1364.82 74.7384 1364.33 75.7306 1363.37 76.4832C1362.41 77.2291 1361.14 77.6021 1359.57 77.6021C1357.93 77.6021 1356.64 77.2531 1355.7 76.5551C1354.76 75.8572 1354.3 74.8683 1354.3 73.5887C1354.3 72.7334 1354.52 71.9738 1354.98 71.3101C1355.43 70.6463 1356.16 70.0612 1357.17 69.5549C1356.31 69.0143 1355.7 68.4361 1355.32 67.8202C1354.95 67.2043 1354.76 66.5303 1354.76 65.7981C1354.76 64.7238 1355.2 63.8548 1356.09 63.191C1356.98 62.5273 1358.14 62.1953 1359.57 62.1953ZM1357.23 73.404C1357.23 73.9925 1357.44 74.4509 1357.84 74.7794C1358.25 75.1079 1358.81 75.2721 1359.53 75.2721C1360.31 75.2721 1360.91 75.1044 1361.29 74.7691C1361.68 74.427 1361.88 73.9788 1361.88 73.4245C1361.88 72.9661 1361.68 72.5384 1361.29 72.1415C1360.91 71.7378 1360.28 71.3101 1359.42 70.8584C1357.95 71.529 1357.23 72.3776 1357.23 73.404ZM1359.55 64.5151C1359 64.5151 1358.57 64.6554 1358.23 64.9359C1357.91 65.2096 1357.74 65.5792 1357.74 66.0444C1357.74 66.455 1357.87 66.8245 1358.14 67.153C1358.39 67.4746 1358.88 67.8065 1359.57 68.1487C1360.24 67.8339 1360.7 67.5123 1360.97 67.1838C1361.24 66.8554 1361.37 66.4756 1361.37 66.0444C1361.37 65.5723 1361.2 65.1994 1360.86 64.9256C1360.51 64.6519 1360.08 64.5151 1359.55 64.5151Z" fill="#21264F"/>
<path d="M1376.88 77.3968H1366.4V75.19L1370.17 71.382C1371.28 70.2392 1372.01 69.4489 1372.34 69.0109C1372.69 68.5661 1372.94 68.1556 1373.09 67.7792C1373.24 67.4028 1373.31 67.0128 1373.31 66.6091C1373.31 66.0069 1373.15 65.5587 1372.81 65.2644C1372.48 64.9702 1372.04 64.823 1371.49 64.823C1370.9 64.823 1370.34 64.9565 1369.8 65.2234C1369.25 65.4903 1368.68 65.87 1368.09 66.3626L1366.36 64.3201C1367.09 63.6905 1367.71 63.2457 1368.19 62.9858C1368.68 62.7257 1369.21 62.5273 1369.79 62.3904C1370.36 62.2467 1371 62.1748 1371.71 62.1748C1372.65 62.1748 1373.48 62.3459 1374.2 62.688C1374.91 63.0302 1375.47 63.5092 1375.87 64.1251C1376.26 64.7409 1376.46 65.4457 1376.46 66.2395C1376.46 66.9306 1376.34 67.5807 1376.1 68.1898C1375.85 68.7919 1375.48 69.4112 1374.96 70.0476C1374.46 70.684 1373.57 71.5906 1372.28 72.7677L1370.35 74.5844V74.7281H1376.88V77.3968Z" fill="#21264F"/>
</g>
<g filter="url(#filter9_dddf)">
<path d="M1329.23 370.74H1238.51C1234.3 370.74 1230.88 374.163 1230.88 378.384V408.005C1230.88 412.227 1234.3 415.649 1238.51 415.649H1329.23C1333.45 415.649 1336.87 412.227 1336.87 408.005V378.384C1336.87 374.163 1333.45 370.74 1329.23 370.74Z" fill="white"/>
</g>
<g filter="url(#filter10_f)">
<path d="M1252.68 401.317L1258.3 388.999H1250.91V386.331H1261.67V388.322L1256 401.317H1252.68Z" fill="#21264F"/>
<path d="M1273.67 401.317H1263.19V399.11L1266.95 395.302C1268.07 394.159 1268.79 393.369 1269.14 392.931C1269.48 392.486 1269.72 392.075 1269.87 391.7C1270.03 391.323 1270.1 390.932 1270.1 390.529C1270.1 389.927 1269.93 389.479 1269.6 389.185C1269.27 388.89 1268.83 388.743 1268.28 388.743C1267.7 388.743 1267.13 388.876 1266.58 389.144C1266.03 389.41 1265.46 389.79 1264.87 390.283L1263.14 388.24C1263.89 387.611 1264.5 387.166 1264.98 386.906C1265.47 386.646 1266 386.447 1266.57 386.31C1267.14 386.167 1267.79 386.094 1268.5 386.094C1269.43 386.094 1270.27 386.266 1270.98 386.608C1271.7 386.951 1272.26 387.429 1272.65 388.045C1273.05 388.661 1273.25 389.366 1273.25 390.159C1273.25 390.851 1273.13 391.501 1272.88 392.109C1272.64 392.711 1272.26 393.332 1271.75 393.968C1271.25 394.604 1270.35 395.511 1269.06 396.687L1267.13 398.505V398.648H1273.67V401.317Z" fill="#21264F"/>
<path d="M1279.06 399.11C1278.7 400.492 1278.1 402.131 1277.26 404.027H1274.99C1275.44 402.206 1275.78 400.488 1276.03 398.874H1278.9L1279.06 399.11Z" fill="#21264F"/>
<path d="M1292.1 398.207H1290.3V401.317H1287.21V398.207H1280.8V396L1287.38 386.311H1290.3V395.743H1292.1V398.207ZM1287.21 395.743V393.198C1287.21 392.774 1287.21 392.157 1287.25 391.35C1287.28 390.543 1287.31 390.074 1287.33 389.944H1287.25C1287 390.505 1286.7 391.053 1286.34 391.586L1283.59 395.743H1287.21Z" fill="#21264F"/>
<path d="M1301.12 401.317H1297.95V392.633L1297.99 391.207L1298.03 389.646C1297.51 390.174 1297.14 390.519 1296.94 390.683L1295.22 392.068L1293.68 390.159L1298.51 386.311H1301.12V401.317Z" fill="#21264F"/>
<path d="M1315.77 401.317H1305.28V399.11L1309.05 395.302C1310.16 394.159 1310.9 393.369 1311.23 392.931C1311.57 392.486 1311.82 392.075 1311.98 391.7C1312.13 391.323 1312.2 390.932 1312.2 390.529C1312.2 389.927 1312.03 389.479 1311.7 389.185C1311.36 388.89 1310.93 388.743 1310.37 388.743C1309.79 388.743 1309.23 388.876 1308.68 389.144C1308.14 389.41 1307.56 389.79 1306.97 390.283L1305.24 388.24C1305.98 387.611 1306.6 387.166 1307.08 386.906C1307.56 386.646 1308.1 386.447 1308.67 386.31C1309.24 386.167 1309.88 386.094 1310.6 386.094C1311.54 386.094 1312.37 386.266 1313.08 386.608C1313.8 386.951 1314.35 387.429 1314.75 388.045C1315.15 388.661 1315.35 389.366 1315.35 390.159C1315.35 390.851 1315.22 391.501 1314.98 392.109C1314.74 392.711 1314.36 393.332 1313.85 393.968C1313.34 394.604 1312.45 395.511 1311.16 396.687L1309.24 398.505V398.648H1315.77V401.317Z" fill="#21264F"/>
</g>
<g filter="url(#filter11_dddf)">
<path d="M316.074 243.656H225.358C221.139 243.656 217.719 247.079 217.719 251.301V280.922C217.719 285.143 221.139 288.566 225.358 288.566H316.074C320.293 288.566 323.714 285.143 323.714 280.922V251.301C323.714 247.079 320.293 243.656 316.074 243.656Z" fill="white"/>
</g>
<g filter="url(#filter12_f)">
<path d="M245.867 274.233H242.696V265.549L242.727 264.123L242.778 262.563C242.252 263.09 241.887 263.435 241.681 263.599L239.958 264.985L238.429 263.076L243.261 259.227H245.867V274.233Z" fill="#21264F"/>
<path d="M260.514 274.233H250.031V272.026L253.795 268.218C254.911 267.075 255.638 266.285 255.98 265.847C256.322 265.402 256.568 264.991 256.719 264.616C256.869 264.239 256.945 263.849 256.945 263.445C256.945 262.843 256.777 262.395 256.442 262.101C256.114 261.807 255.673 261.659 255.119 261.659C254.537 261.659 253.973 261.792 253.427 262.06C252.879 262.326 252.308 262.707 251.714 263.199L249.99 261.156C250.728 260.527 251.34 260.082 251.826 259.822C252.311 259.562 252.841 259.363 253.416 259.227C253.99 259.083 254.634 259.011 255.344 259.011C256.281 259.011 257.109 259.182 257.827 259.524C258.545 259.867 259.103 260.346 259.499 260.961C259.895 261.577 260.094 262.282 260.094 263.076C260.094 263.767 259.971 264.417 259.724 265.026C259.486 265.628 259.109 266.248 258.597 266.884C258.09 267.521 257.195 268.427 255.908 269.604L253.98 271.421V271.564H260.514V274.233Z" fill="#21264F"/>
<path d="M265.9 272.026C265.544 273.408 264.942 275.047 264.094 276.943H261.837C262.282 275.123 262.627 273.405 262.874 271.79H265.746L265.9 272.026Z" fill="#21264F"/>
<path d="M278.024 262.583C278.024 263.521 277.74 264.318 277.173 264.975C276.605 265.632 275.809 266.083 274.783 266.33V266.391C275.993 266.542 276.91 266.911 277.532 267.5C278.154 268.081 278.465 268.868 278.465 269.861C278.465 271.304 277.942 272.43 276.896 273.237C275.85 274.038 274.355 274.438 272.413 274.438C270.786 274.438 269.343 274.168 268.084 273.627V270.928C268.666 271.222 269.305 271.462 270.003 271.646C270.7 271.831 271.391 271.924 272.075 271.924C273.122 271.924 273.894 271.746 274.394 271.389C274.892 271.034 275.142 270.463 275.142 269.675C275.142 268.971 274.855 268.471 274.28 268.177C273.706 267.883 272.789 267.736 271.532 267.736H270.392V265.303H271.552C272.714 265.303 273.562 265.153 274.096 264.852C274.636 264.543 274.906 264.02 274.906 263.281C274.906 262.145 274.195 261.577 272.772 261.577C272.28 261.577 271.777 261.659 271.264 261.824C270.758 261.988 270.194 262.272 269.572 262.675L268.105 260.489C269.473 259.504 271.104 259.011 272.998 259.011C274.55 259.011 275.774 259.326 276.67 259.956C277.573 260.584 278.024 261.461 278.024 262.583Z" fill="#21264F"/>
<path d="M290.026 262.583C290.026 263.521 289.742 264.318 289.175 264.975C288.607 265.632 287.81 266.083 286.784 266.33V266.391C287.995 266.542 288.911 266.911 289.534 267.5C290.156 268.081 290.467 268.868 290.467 269.861C290.467 271.304 289.944 272.43 288.898 273.237C287.851 274.038 286.358 274.438 284.415 274.438C282.787 274.438 281.344 274.168 280.086 273.627V270.928C280.667 271.222 281.307 271.462 282.004 271.646C282.702 271.831 283.393 271.924 284.076 271.924C285.123 271.924 285.895 271.746 286.395 271.389C286.894 271.034 287.143 270.463 287.143 269.675C287.143 268.971 286.856 268.471 286.282 268.177C285.707 267.883 284.792 267.736 283.533 267.736H282.394V265.303H283.553C284.716 265.303 285.564 265.153 286.097 264.852C286.637 264.543 286.908 264.02 286.908 263.281C286.908 262.145 286.196 261.577 284.774 261.577C284.282 261.577 283.779 261.659 283.267 261.824C282.76 261.988 282.196 262.272 281.573 262.675L280.107 260.489C281.474 259.504 283.105 259.011 285 259.011C286.552 259.011 287.777 259.326 288.672 259.956C289.575 260.584 290.026 261.461 290.026 262.583Z" fill="#21264F"/>
<path d="M302.028 262.583C302.028 263.521 301.744 264.318 301.176 264.975C300.609 265.632 299.812 266.083 298.787 266.33V266.391C299.996 266.542 300.913 266.911 301.535 267.5C302.157 268.081 302.469 268.868 302.469 269.861C302.469 271.304 301.945 272.43 300.899 273.237C299.853 274.038 298.359 274.438 296.417 274.438C294.789 274.438 293.347 274.168 292.088 273.627V270.928C292.67 271.222 293.308 271.462 294.006 271.646C294.703 271.831 295.394 271.924 296.079 271.924C297.124 271.924 297.898 271.746 298.396 271.389C298.895 271.034 299.145 270.463 299.145 269.675C299.145 268.971 298.858 268.471 298.283 268.177C297.709 267.883 296.793 267.736 295.534 267.736H294.396V265.303H295.555C296.717 265.303 297.565 265.153 298.099 264.852C298.64 264.543 298.909 264.02 298.909 263.281C298.909 262.145 298.198 261.577 296.776 261.577C296.283 261.577 295.781 261.659 295.268 261.824C294.762 261.988 294.197 262.272 293.575 262.675L292.108 260.489C293.476 259.504 295.107 259.011 297.001 259.011C298.554 259.011 299.778 259.326 300.674 259.956C301.576 260.584 302.028 261.461 302.028 262.583Z" fill="#21264F"/>
</g>
<g filter="url(#filter13_dddf)">
<path d="M200.531 83.1299H109.814C105.595 83.1299 102.175 86.5523 102.175 90.774V120.395C102.175 124.617 105.595 128.039 109.814 128.039H200.531C204.75 128.039 208.17 124.617 208.17 120.395V90.774C208.17 86.5523 204.75 83.1299 200.531 83.1299Z" fill="white"/>
</g>
<g filter="url(#filter14_f)">
<path d="M139.447 113.706H128.964V111.499L132.728 107.691C133.843 106.549 134.571 105.758 134.913 105.321C135.255 104.876 135.501 104.465 135.652 104.089C135.802 103.713 135.878 103.322 135.878 102.919C135.878 102.317 135.709 101.869 135.375 101.574C135.047 101.28 134.606 101.133 134.052 101.133C133.47 101.133 132.906 101.266 132.359 101.533C131.812 101.8 131.241 102.18 130.646 102.672L128.923 100.629C129.661 100.001 130.273 99.5553 130.759 99.2954C131.244 99.0355 131.774 98.8367 132.349 98.7001C132.923 98.5567 133.566 98.4841 134.277 98.4841C135.214 98.4841 136.042 98.6552 136.76 98.9972C137.478 99.3403 138.035 99.819 138.432 100.434C138.828 101.051 139.027 101.756 139.027 102.549C139.027 103.241 138.904 103.89 138.657 104.499C138.418 105.101 138.042 105.721 137.529 106.358C137.022 106.994 136.127 107.901 134.841 109.077L132.913 110.894V111.038H139.447V113.706Z" fill="#21264F"/>
<path d="M144.833 111.499C144.476 112.882 143.875 114.521 143.027 116.416H140.771C141.215 114.596 141.56 112.878 141.807 111.263H144.679L144.833 111.499Z" fill="#21264F"/>
<path d="M157.881 110.596H156.075V113.706H152.977V110.596H146.576V108.39L153.152 98.7H156.075V108.133H157.881V110.596ZM152.977 108.133V105.587C152.977 105.163 152.994 104.547 153.029 103.739C153.063 102.932 153.09 102.464 153.111 102.334H153.029C152.776 102.895 152.471 103.442 152.116 103.975L149.367 108.133H152.977Z" fill="#21264F"/>
<path d="M166.897 113.706H163.727V105.023L163.758 103.596L163.81 102.036C163.282 102.563 162.917 102.908 162.712 103.072L160.989 104.458L159.46 102.549L164.292 98.7H166.897V113.706Z" fill="#21264F"/>
<path d="M181.545 113.706H171.062V111.499L174.826 107.691C175.941 106.549 176.669 105.758 177.011 105.321C177.353 104.876 177.599 104.465 177.75 104.089C177.9 103.713 177.976 103.322 177.976 102.919C177.976 102.317 177.808 101.869 177.473 101.574C177.145 101.28 176.704 101.133 176.15 101.133C175.568 101.133 175.004 101.266 174.457 101.533C173.91 101.8 173.339 102.18 172.744 102.672L171.021 100.629C171.759 100.001 172.371 99.5553 172.857 99.2954C173.342 99.0355 173.872 98.8367 174.447 98.7001C175.021 98.5567 175.664 98.4841 176.375 98.4841C177.312 98.4841 178.14 98.6552 178.858 98.9972C179.576 99.3403 180.133 99.819 180.53 100.434C180.926 101.051 181.125 101.756 181.125 102.549C181.125 103.241 181.002 103.89 180.755 104.499C180.516 105.101 180.139 105.721 179.627 106.358C179.121 106.994 178.225 107.901 176.94 109.077L175.011 110.894V111.038H181.545V113.706Z" fill="#21264F"/>
</g>
<g filter="url(#filter15_dddf)">
<path d="M1090.5 286.655H999.788C995.569 286.655 992.148 290.077 992.148 294.299V323.92C992.148 328.142 995.569 331.564 999.788 331.564H1090.5C1094.72 331.564 1098.14 328.142 1098.14 323.92V294.299C1098.14 290.077 1094.72 286.655 1090.5 286.655Z" fill="white"/>
</g>
<g filter="url(#filter16_f)">
<path d="M1024.4 307.645C1025.85 307.645 1026.99 308.052 1027.85 308.866C1028.71 309.68 1029.14 310.796 1029.14 312.212C1029.14 313.889 1028.63 315.179 1027.59 316.082C1026.56 316.985 1025.08 317.437 1023.16 317.437C1021.49 317.437 1020.15 317.166 1019.12 316.625V313.885C1019.66 314.173 1020.29 314.409 1021.01 314.593C1021.73 314.771 1022.41 314.861 1023.05 314.861C1024.99 314.861 1025.95 314.067 1025.95 312.479C1025.95 310.967 1024.95 310.21 1022.94 310.21C1022.58 310.21 1022.19 310.248 1021.75 310.324C1021.31 310.392 1020.96 310.467 1020.68 310.549L1019.42 309.872L1019.98 302.225H1028.12V304.914H1022.76L1022.49 307.86L1022.85 307.788C1023.26 307.692 1023.78 307.645 1024.4 307.645Z" fill="#21264F"/>
<path d="M1034.8 315.024C1034.45 316.407 1033.85 318.045 1033 319.941H1030.75C1031.19 318.121 1031.54 316.403 1031.78 314.788H1034.65L1034.8 315.024Z" fill="#21264F"/>
<path d="M1047.46 308.63C1047.46 311.586 1046.84 313.792 1045.59 315.251C1044.34 316.708 1042.46 317.437 1039.93 317.437C1039.04 317.437 1038.38 317.389 1037.92 317.292V314.747C1038.49 314.891 1039.09 314.963 1039.72 314.963C1040.78 314.963 1041.65 314.809 1042.34 314.501C1043.02 314.186 1043.54 313.697 1043.9 313.033C1044.27 312.363 1044.48 311.442 1044.53 310.272H1044.41C1044.01 310.915 1043.55 311.367 1043.04 311.627C1042.51 311.887 1041.86 312.017 1041.09 312.017C1039.78 312.017 1038.75 311.599 1037.99 310.764C1037.24 309.924 1036.87 308.757 1036.87 307.264C1036.87 305.656 1037.33 304.387 1038.23 303.457C1039.15 302.519 1040.39 302.05 1041.97 302.05C1043.07 302.05 1044.04 302.31 1044.87 302.831C1045.7 303.35 1046.34 304.106 1046.79 305.099C1047.23 306.084 1047.46 307.261 1047.46 308.63ZM1042.02 304.596C1041.37 304.596 1040.86 304.822 1040.49 305.273C1040.12 305.725 1039.93 306.375 1039.93 307.223C1039.93 307.948 1040.1 308.524 1040.44 308.948C1040.77 309.372 1041.28 309.584 1041.97 309.584C1042.61 309.584 1043.16 309.376 1043.62 308.958C1044.08 308.534 1044.31 308.048 1044.31 307.5C1044.31 306.686 1044.09 305.998 1043.66 305.437C1043.24 304.876 1042.69 304.596 1042.02 304.596Z" fill="#21264F"/>
<path d="M1054.49 307.645C1055.94 307.645 1057.09 308.052 1057.95 308.866C1058.81 309.68 1059.24 310.796 1059.24 312.212C1059.24 313.889 1058.72 315.179 1057.69 316.082C1056.66 316.985 1055.18 317.437 1053.26 317.437C1051.59 317.437 1050.25 317.166 1049.21 316.625V313.885C1049.76 314.173 1050.39 314.409 1051.1 314.593C1051.82 314.771 1052.51 314.861 1053.15 314.861C1055.09 314.861 1056.05 314.067 1056.05 312.479C1056.05 310.967 1055.05 310.21 1053.04 310.21C1052.68 310.21 1052.28 310.248 1051.84 310.324C1051.41 310.392 1051.05 310.467 1050.78 310.549L1049.52 309.872L1050.08 302.225H1058.22V304.914H1052.86L1052.58 307.86L1052.94 307.788C1053.36 307.692 1053.87 307.645 1054.49 307.645Z" fill="#21264F"/>
<path d="M1066.49 307.645C1067.94 307.645 1069.09 308.052 1069.94 308.866C1070.81 309.68 1071.24 310.796 1071.24 312.212C1071.24 313.889 1070.73 315.179 1069.7 316.082C1068.66 316.985 1067.19 317.437 1065.27 317.437C1063.59 317.437 1062.25 317.166 1061.22 316.625V313.885C1061.76 314.173 1062.39 314.409 1063.11 314.593C1063.82 314.771 1064.5 314.861 1065.15 314.861C1067.08 314.861 1068.05 314.067 1068.05 312.479C1068.05 310.967 1067.05 310.21 1065.05 310.21C1064.68 310.21 1064.28 310.248 1063.84 310.324C1063.4 310.392 1063.05 310.467 1062.78 310.549L1061.51 309.872L1062.09 302.225H1070.21V304.914H1064.86L1064.59 307.86L1064.94 307.788C1065.36 307.692 1065.88 307.645 1066.49 307.645Z" fill="#21264F"/>
</g>
<g filter="url(#filter17_dddf)">
<path d="M140.371 343.986H49.6552C45.4361 343.986 42.0159 347.408 42.0159 351.63V381.251C42.0159 385.473 45.4361 388.895 49.6552 388.895H140.371C144.59 388.895 148.011 385.473 148.011 381.251V351.63C148.011 347.408 144.59 343.986 140.371 343.986Z" fill="white"/>
</g>
<g filter="url(#filter18_f)">
<path d="M79.288 374.562H68.8046V372.355L72.5692 368.547C73.6839 367.404 74.4122 366.614 74.7541 366.177C75.0961 365.731 75.3423 365.32 75.4927 364.945C75.6432 364.568 75.7183 364.178 75.7183 363.774C75.7183 363.172 75.5508 362.724 75.2157 362.43C74.8874 362.136 74.4464 361.989 73.8924 361.989C73.3112 361.989 72.747 362.121 72.2 362.389C71.6529 362.655 71.0819 363.036 70.4869 363.528L68.7635 361.485C69.5021 360.856 70.1142 360.411 70.5997 360.151C71.0853 359.891 71.6153 359.692 72.1896 359.556C72.7641 359.412 73.407 359.34 74.1182 359.34C75.055 359.34 75.8825 359.511 76.6005 359.853C77.3185 360.196 77.8759 360.675 78.2726 361.29C78.6692 361.906 78.8675 362.612 78.8675 363.405C78.8675 364.096 78.7444 364.746 78.4982 365.355C78.2588 365.957 77.8827 366.577 77.3698 367.213C76.8638 367.85 75.9679 368.756 74.6823 369.933L72.7539 371.75V371.893H79.288V374.562Z" fill="#21264F"/>
<path d="M84.6734 372.355C84.3178 373.738 83.716 375.376 82.868 377.272H80.6114C81.0559 375.452 81.4012 373.734 81.6473 372.119H84.5195L84.6734 372.355Z" fill="#21264F"/>
<path d="M97.3213 365.961C97.3213 368.917 96.6987 371.123 95.4543 372.581C94.2097 374.038 92.3257 374.768 89.8023 374.768C88.9133 374.768 88.2397 374.72 87.7816 374.623V372.078C88.3559 372.222 88.9577 372.294 89.5869 372.294C90.6469 372.294 91.5188 372.14 92.2026 371.832C92.8865 371.517 93.4096 371.028 93.7721 370.364C94.1346 369.694 94.3431 368.773 94.3978 367.603H94.2747C93.8781 368.246 93.4199 368.698 92.9002 368.958C92.3804 369.218 91.7308 369.348 90.9512 369.348C89.6451 369.348 88.6159 368.93 87.8636 368.095C87.1113 367.254 86.7353 366.088 86.7353 364.595C86.7353 362.987 87.19 361.718 88.0995 360.787C89.0159 359.85 90.2605 359.381 91.8333 359.381C92.9412 359.381 93.9088 359.641 94.7363 360.162C95.5709 360.681 96.2098 361.437 96.6548 362.43C97.0988 363.415 97.3213 364.592 97.3213 365.961ZM91.8949 361.926C91.2384 361.926 90.7255 362.153 90.3562 362.604C89.9869 363.056 89.8023 363.706 89.8023 364.554C89.8023 365.279 89.9698 365.854 90.3049 366.279C90.64 366.703 91.1495 366.915 91.8333 366.915C92.4762 366.915 93.0267 366.707 93.4848 366.289C93.943 365.865 94.1721 365.379 94.1721 364.831C94.1721 364.017 93.9568 363.329 93.5259 362.768C93.1019 362.207 92.5582 361.926 91.8949 361.926Z" fill="#21264F"/>
<path d="M104.071 359.361C105.507 359.361 106.663 359.69 107.538 360.346C108.42 360.996 108.861 361.876 108.861 362.984C108.861 363.75 108.649 364.435 108.225 365.037C107.801 365.632 107.118 366.166 106.174 366.638C107.295 367.24 108.098 367.87 108.584 368.527C109.077 369.177 109.323 369.892 109.323 370.672C109.323 371.904 108.84 372.896 107.877 373.649C106.912 374.395 105.643 374.768 104.071 374.768C102.43 374.768 101.141 374.419 100.204 373.72C99.2664 373.023 98.7985 372.034 98.7985 370.754C98.7985 369.898 99.0239 369.14 99.4755 368.476C99.9339 367.811 100.665 367.227 101.671 366.72C100.815 366.179 100.2 365.601 99.8241 364.986C99.4479 364.37 99.2597 363.696 99.2597 362.963C99.2597 361.889 99.7047 361.02 100.594 360.356C101.483 359.692 102.642 359.361 104.071 359.361ZM101.732 370.569C101.732 371.158 101.937 371.616 102.348 371.945C102.758 372.273 103.319 372.437 104.029 372.437C104.816 372.437 105.405 372.27 105.794 371.934C106.184 371.592 106.379 371.144 106.379 370.59C106.379 370.131 106.184 369.703 105.794 369.307C105.411 368.903 104.786 368.476 103.917 368.024C102.461 368.694 101.732 369.543 101.732 370.569ZM104.051 361.681C103.51 361.681 103.073 361.82 102.738 362.101C102.409 362.375 102.245 362.744 102.245 363.21C102.245 363.621 102.375 363.99 102.634 364.318C102.902 364.64 103.38 364.972 104.071 365.314C104.741 364.999 105.21 364.677 105.476 364.35C105.743 364.021 105.876 363.641 105.876 363.21C105.876 362.738 105.705 362.365 105.364 362.091C105.022 361.817 104.583 361.681 104.051 361.681Z" fill="#21264F"/>
<path d="M121.386 374.562H110.903V372.355L114.667 368.547C115.782 367.404 116.51 366.614 116.852 366.177C117.194 365.731 117.44 365.32 117.591 364.945C117.741 364.568 117.816 364.178 117.816 363.774C117.816 363.172 117.648 362.724 117.314 362.43C116.986 362.136 116.545 361.989 115.991 361.989C115.409 361.989 114.845 362.121 114.298 362.389C113.75 362.655 113.179 363.036 112.585 363.528L110.862 361.485C111.6 360.856 112.212 360.411 112.698 360.151C113.183 359.891 113.713 359.692 114.288 359.556C114.862 359.412 115.505 359.34 116.216 359.34C117.153 359.34 117.981 359.511 118.699 359.853C119.417 360.196 119.974 360.675 120.371 361.29C120.767 361.906 120.966 362.612 120.966 363.405C120.966 364.096 120.843 364.746 120.596 365.355C120.356 365.957 119.98 366.577 119.467 367.213C118.961 367.85 118.066 368.756 116.78 369.933L114.851 371.75V371.893H121.386V374.562Z" fill="#21264F"/>
</g>
<g filter="url(#filter19_dddf)">
<path d="M1204.14 140.461H1113.42C1109.2 140.461 1105.78 143.883 1105.78 148.105V177.726C1105.78 181.948 1109.2 185.37 1113.42 185.37H1204.14C1208.36 185.37 1211.78 181.948 1211.78 177.726V148.105C1211.78 143.883 1208.36 140.461 1204.14 140.461Z" fill="white"/>
</g>
<g filter="url(#filter20_f)">
<path d="M1143.4 167.927H1141.59V171.037H1138.49V167.927H1132.09V165.721L1138.66 156.031H1141.59V165.464H1143.4V167.927ZM1138.49 165.464V162.918C1138.49 162.494 1138.51 161.878 1138.55 161.07C1138.57 160.263 1138.6 159.795 1138.62 159.665H1138.55C1138.29 160.225 1137.98 160.773 1137.63 161.306L1134.88 165.464H1138.49Z" fill="#21264F"/>
<path d="M1148.44 168.83C1148.08 170.213 1147.48 171.851 1146.63 173.747H1144.38C1144.82 171.927 1145.17 170.209 1145.41 168.594H1148.29L1148.44 168.83Z" fill="#21264F"/>
<path d="M1161.09 162.436C1161.09 165.392 1160.47 167.598 1159.22 169.056C1157.98 170.514 1156.1 171.243 1153.57 171.243C1152.68 171.243 1152.01 171.195 1151.55 171.098V168.553C1152.12 168.697 1152.73 168.769 1153.36 168.769C1154.42 168.769 1155.28 168.615 1155.97 168.307C1156.65 167.992 1157.18 167.503 1157.54 166.839C1157.9 166.169 1158.11 165.248 1158.17 164.078H1158.04C1157.64 164.721 1157.19 165.173 1156.67 165.433C1156.14 165.693 1155.49 165.823 1154.72 165.823C1153.41 165.823 1152.38 165.405 1151.63 164.57C1150.87 163.729 1150.5 162.563 1150.5 161.07C1150.5 159.462 1150.96 158.193 1151.87 157.262C1152.78 156.325 1154.02 155.856 1155.6 155.856C1156.71 155.856 1157.67 156.116 1158.5 156.637C1159.33 157.156 1159.97 157.912 1160.42 158.905C1160.86 159.89 1161.09 161.067 1161.09 162.436ZM1155.66 158.401C1155.01 158.401 1154.49 158.628 1154.12 159.079C1153.76 159.531 1153.57 160.181 1153.57 161.029C1153.57 161.754 1153.74 162.33 1154.07 162.754C1154.41 163.178 1154.91 163.39 1155.6 163.39C1156.24 163.39 1156.79 163.182 1157.25 162.764C1157.71 162.34 1157.94 161.854 1157.94 161.306C1157.94 160.492 1157.72 159.804 1157.29 159.243C1156.87 158.682 1156.33 158.401 1155.66 158.401Z" fill="#21264F"/>
<path d="M1167.84 155.836C1169.27 155.836 1170.43 156.165 1171.31 156.821C1172.19 157.471 1172.63 158.351 1172.63 159.459C1172.63 160.226 1172.42 160.91 1172 161.512C1171.57 162.107 1170.89 162.641 1169.94 163.113C1171.06 163.715 1171.86 164.345 1172.35 165.002C1172.85 165.652 1173.09 166.367 1173.09 167.147C1173.09 168.379 1172.61 169.371 1171.64 170.124C1170.68 170.87 1169.41 171.243 1167.84 171.243C1166.2 171.243 1164.91 170.894 1163.97 170.195C1163.03 169.498 1162.56 168.509 1162.56 167.229C1162.56 166.373 1162.79 165.615 1163.24 164.951C1163.7 164.287 1164.43 163.702 1165.44 163.195C1164.59 162.654 1163.97 162.076 1163.59 161.461C1163.21 160.845 1163.03 160.171 1163.03 159.438C1163.03 158.364 1163.47 157.495 1164.36 156.832C1165.24 156.167 1166.41 155.836 1167.84 155.836ZM1165.5 167.044C1165.5 167.633 1165.7 168.091 1166.11 168.42C1166.52 168.748 1167.09 168.912 1167.79 168.912C1168.59 168.912 1169.17 168.745 1169.56 168.41C1169.95 168.067 1170.14 167.619 1170.14 167.065C1170.14 166.607 1169.95 166.178 1169.56 165.782C1169.18 165.378 1168.55 164.951 1167.68 164.499C1166.23 165.169 1165.5 166.018 1165.5 167.044ZM1167.81 158.156C1167.28 158.156 1166.84 158.295 1166.51 158.576C1166.18 158.85 1166.01 159.219 1166.01 159.685C1166.01 160.096 1166.14 160.465 1166.4 160.793C1166.67 161.115 1167.14 161.447 1167.84 161.789C1168.51 161.474 1168.98 161.152 1169.25 160.825C1169.51 160.496 1169.65 160.116 1169.65 159.685C1169.65 159.213 1169.47 158.84 1169.13 158.566C1168.79 158.293 1168.35 158.156 1167.81 158.156Z" fill="#21264F"/>
<path d="M1185.15 171.037H1174.67V168.83L1178.43 165.022C1179.55 163.88 1180.27 163.089 1180.62 162.652C1180.96 162.206 1181.21 161.796 1181.35 161.42C1181.51 161.044 1181.58 160.653 1181.58 160.25C1181.58 159.648 1181.41 159.199 1181.08 158.905C1180.75 158.611 1180.31 158.464 1179.76 158.464C1179.18 158.464 1178.61 158.596 1178.07 158.864C1177.52 159.131 1176.94 159.511 1176.35 160.003L1174.63 157.96C1175.37 157.331 1175.98 156.886 1176.46 156.626C1176.95 156.366 1177.48 156.168 1178.05 156.031C1178.63 155.888 1179.27 155.815 1179.98 155.815C1180.92 155.815 1181.75 155.986 1182.46 156.328C1183.19 156.671 1183.74 157.15 1184.13 157.765C1184.53 158.381 1184.73 159.087 1184.73 159.88C1184.73 160.572 1184.61 161.221 1184.36 161.83C1184.12 162.432 1183.75 163.052 1183.23 163.688C1182.73 164.325 1181.83 165.232 1180.54 166.408L1178.62 168.225V168.369H1185.15V171.037Z" fill="#21264F"/>
</g>
</g>
<defs>
<filter id="filter0_f" x="361.572" y="1.57739" width="682.48" height="450.715" filterUnits="userSpaceOnUse" color-interpolation-filters="sRGB">
<feFlood flood-opacity="0" result="BackgroundImageFix"/>
<feBlend mode="normal" in="SourceGraphic" in2="BackgroundImageFix" result="shape"/>
<feGaussianBlur stdDeviation="3.5" result="effect1_foregroundBlur"/>
</filter>
<filter id="filter1_dddf" x="795.363" y="26.4875" width="193.995" height="138.909" filterUnits="userSpaceOnUse" color-interpolation-filters="sRGB">
<feFlood flood-opacity="0" result="BackgroundImageFix"/>
<feColorMatrix in="SourceAlpha" type="matrix" values="0 0 0 0 0 0 0 0 0 0 0 0 0 0 0 0 0 0 127 0" result="hardAlpha"/>
<feOffset dy="24"/>
<feGaussianBlur stdDeviation="12"/>
<feColorMatrix type="matrix" values="0 0 0 0 0.202645 0 0 0 0 0.237189 0 0 0 0 0.553838 0 0 0 0.2 0"/>
<feBlend mode="normal" in2="BackgroundImageFix" result="effect1_dropShadow"/>
<feColorMatrix in="SourceAlpha" type="matrix" values="0 0 0 0 0 0 0 0 0 0 0 0 0 0 0 0 0 0 127 0" result="hardAlpha"/>
<feOffset dy="34"/>
<feGaussianBlur stdDeviation="17"/>
<feColorMatrix type="matrix" values="0 0 0 0 0.13 0 0 0 0 0.15 0 0 0 0 0.31 0 0 0 0.2 0"/>
<feBlend mode="normal" in2="effect1_dropShadow" result="effect2_dropShadow"/>
<feColorMatrix in="SourceAlpha" type="matrix" values="0 0 0 0 0 0 0 0 0 0 0 0 0 0 0 0 0 0 127 0" result="hardAlpha"/>
<feOffset dy="44"/>
<feGaussianBlur stdDeviation="22"/>
<feColorMatrix type="matrix" values="0 0 0 0 0.13 0 0 0 0 0.15 0 0 0 0 0.31 0 0 0 0.2 0"/>
<feBlend mode="normal" in2="effect2_dropShadow" result="effect3_dropShadow"/>
<feBlend mode="normal" in="SourceGraphic" in2="effect3_dropShadow" result="shape"/>
<feGaussianBlur stdDeviation="3" result="effect4_foregroundBlur"/>
</filter>
<filter id="filter2_f" x="847.632" y="41.842" width="88.6265" height="29.9317" filterUnits="userSpaceOnUse" color-interpolation-filters="sRGB">
<feFlood flood-opacity="0" result="BackgroundImageFix"/>
<feBlend mode="normal" in="SourceGraphic" in2="BackgroundImageFix" result="shape"/>
<feGaussianBlur stdDeviation="3" result="effect1_foregroundBlur"/>
</filter>
<filter id="filter3_dddf" x="305.496" y="-0.177979" width="193.995" height="135.954" filterUnits="userSpaceOnUse" color-interpolation-filters="sRGB">
<feFlood flood-opacity="0" result="BackgroundImageFix"/>
<feColorMatrix in="SourceAlpha" type="matrix" values="0 0 0 0 0 0 0 0 0 0 0 0 0 0 0 0 0 0 127 0" result="hardAlpha"/>
<feOffset dy="24"/>
<feGaussianBlur stdDeviation="12"/>
<feColorMatrix type="matrix" values="0 0 0 0 0.202645 0 0 0 0 0.237189 0 0 0 0 0.553838 0 0 0 0.2 0"/>
<feBlend mode="normal" in2="BackgroundImageFix" result="effect1_dropShadow"/>
<feColorMatrix in="SourceAlpha" type="matrix" values="0 0 0 0 0 0 0 0 0 0 0 0 0 0 0 0 0 0 127 0" result="hardAlpha"/>
<feOffset dy="34"/>
<feGaussianBlur stdDeviation="17"/>
<feColorMatrix type="matrix" values="0 0 0 0 0.13 0 0 0 0 0.15 0 0 0 0 0.31 0 0 0 0.2 0"/>
<feBlend mode="normal" in2="effect1_dropShadow" result="effect2_dropShadow"/>
<feColorMatrix in="SourceAlpha" type="matrix" values="0 0 0 0 0 0 0 0 0 0 0 0 0 0 0 0 0 0 127 0" result="hardAlpha"/>
<feOffset dy="44"/>
<feGaussianBlur stdDeviation="22"/>
<feColorMatrix type="matrix" values="0 0 0 0 0.13 0 0 0 0 0.15 0 0 0 0 0.31 0 0 0 0.2 0"/>
<feBlend mode="normal" in2="effect2_dropShadow" result="effect3_dropShadow"/>
<feBlend mode="normal" in="SourceGraphic" in2="effect3_dropShadow" result="shape"/>
<feGaussianBlur stdDeviation="2" result="effect4_foregroundBlur"/>
</filter>
<filter id="filter4_f" x="365.659" y="14.1765" width="72.0394" height="27.9317" filterUnits="userSpaceOnUse" color-interpolation-filters="sRGB">
<feFlood flood-opacity="0" result="BackgroundImageFix"/>
<feBlend mode="normal" in="SourceGraphic" in2="BackgroundImageFix" result="shape"/>
<feGaussianBlur stdDeviation="2.5" result="effect1_foregroundBlur"/>
</filter>
<filter id="filter5_dddf" x="396.212" y="404.005" width="193.995" height="136.909" filterUnits="userSpaceOnUse" color-interpolation-filters="sRGB">
<feFlood flood-opacity="0" result="BackgroundImageFix"/>
<feColorMatrix in="SourceAlpha" type="matrix" values="0 0 0 0 0 0 0 0 0 0 0 0 0 0 0 0 0 0 127 0" result="hardAlpha"/>
<feOffset dy="24"/>
<feGaussianBlur stdDeviation="12"/>
<feColorMatrix type="matrix" values="0 0 0 0 0.202645 0 0 0 0 0.237189 0 0 0 0 0.553838 0 0 0 0.2 0"/>
<feBlend mode="normal" in2="BackgroundImageFix" result="effect1_dropShadow"/>
<feColorMatrix in="SourceAlpha" type="matrix" values="0 0 0 0 0 0 0 0 0 0 0 0 0 0 0 0 0 0 127 0" result="hardAlpha"/>
<feOffset dy="34"/>
<feGaussianBlur stdDeviation="17"/>
<feColorMatrix type="matrix" values="0 0 0 0 0.13 0 0 0 0 0.15 0 0 0 0 0.31 0 0 0 0.2 0"/>
<feBlend mode="normal" in2="effect1_dropShadow" result="effect2_dropShadow"/>
<feColorMatrix in="SourceAlpha" type="matrix" values="0 0 0 0 0 0 0 0 0 0 0 0 0 0 0 0 0 0 127 0" result="hardAlpha"/>
<feOffset dy="44"/>
<feGaussianBlur stdDeviation="22"/>
<feColorMatrix type="matrix" values="0 0 0 0 0.13 0 0 0 0 0.15 0 0 0 0 0.31 0 0 0 0.2 0"/>
<feBlend mode="normal" in2="effect2_dropShadow" result="effect3_dropShadow"/>
<feBlend mode="normal" in="SourceGraphic" in2="effect3_dropShadow" result="shape"/>
<feGaussianBlur stdDeviation="2" result="effect4_foregroundBlur"/>
</filter>
<filter id="filter6_f" x="450.876" y="418.339" width="86.1854" height="27.9521" filterUnits="userSpaceOnUse" color-interpolation-filters="sRGB">
<feFlood flood-opacity="0" result="BackgroundImageFix"/>
<feBlend mode="normal" in="SourceGraphic" in2="BackgroundImageFix" result="shape"/>
<feGaussianBlur stdDeviation="2.5" result="effect1_foregroundBlur"/>
</filter>
<filter id="filter7_dddf" x="1247.99" y="42.8203" width="193.995" height="136.909" filterUnits="userSpaceOnUse" color-interpolation-filters="sRGB">
<feFlood flood-opacity="0" result="BackgroundImageFix"/>
<feColorMatrix in="SourceAlpha" type="matrix" values="0 0 0 0 0 0 0 0 0 0 0 0 0 0 0 0 0 0 127 0" result="hardAlpha"/>
<feOffset dy="24"/>
<feGaussianBlur stdDeviation="12"/>
<feColorMatrix type="matrix" values="0 0 0 0 0.202645 0 0 0 0 0.237189 0 0 0 0 0.553838 0 0 0 0.2 0"/>
<feBlend mode="normal" in2="BackgroundImageFix" result="effect1_dropShadow"/>
<feColorMatrix in="SourceAlpha" type="matrix" values="0 0 0 0 0 0 0 0 0 0 0 0 0 0 0 0 0 0 127 0" result="hardAlpha"/>
<feOffset dy="34"/>
<feGaussianBlur stdDeviation="17"/>
<feColorMatrix type="matrix" values="0 0 0 0 0.13 0 0 0 0 0.15 0 0 0 0 0.31 0 0 0 0.2 0"/>
<feBlend mode="normal" in2="effect1_dropShadow" result="effect2_dropShadow"/>
<feColorMatrix in="SourceAlpha" type="matrix" values="0 0 0 0 0 0 0 0 0 0 0 0 0 0 0 0 0 0 127 0" result="hardAlpha"/>
<feOffset dy="44"/>
<feGaussianBlur stdDeviation="22"/>
<feColorMatrix type="matrix" values="0 0 0 0 0.13 0 0 0 0 0.15 0 0 0 0 0.31 0 0 0 0.2 0"/>
<feBlend mode="normal" in2="effect2_dropShadow" result="effect3_dropShadow"/>
<feBlend mode="normal" in="SourceGraphic" in2="effect3_dropShadow" result="shape"/>
<feGaussianBlur stdDeviation="2" result="effect4_foregroundBlur"/>
</filter>
<filter id="filter8_f" x="1306.26" y="56.1748" width="76.6185" height="29.9317" filterUnits="userSpaceOnUse" color-interpolation-filters="sRGB">
<feFlood flood-opacity="0" result="BackgroundImageFix"/>
<feBlend mode="normal" in="SourceGraphic" in2="BackgroundImageFix" result="shape"/>
<feGaussianBlur stdDeviation="3" result="effect1_foregroundBlur"/>
</filter>
<filter id="filter9_dddf" x="1186.88" y="366.74" width="193.995" height="136.909" filterUnits="userSpaceOnUse" color-interpolation-filters="sRGB">
<feFlood flood-opacity="0" result="BackgroundImageFix"/>
<feColorMatrix in="SourceAlpha" type="matrix" values="0 0 0 0 0 0 0 0 0 0 0 0 0 0 0 0 0 0 127 0" result="hardAlpha"/>
<feOffset dy="24"/>
<feGaussianBlur stdDeviation="12"/>
<feColorMatrix type="matrix" values="0 0 0 0 0.202645 0 0 0 0 0.237189 0 0 0 0 0.553838 0 0 0 0.2 0"/>
<feBlend mode="normal" in2="BackgroundImageFix" result="effect1_dropShadow"/>
<feColorMatrix in="SourceAlpha" type="matrix" values="0 0 0 0 0 0 0 0 0 0 0 0 0 0 0 0 0 0 127 0" result="hardAlpha"/>
<feOffset dy="34"/>
<feGaussianBlur stdDeviation="17"/>
<feColorMatrix type="matrix" values="0 0 0 0 0.13 0 0 0 0 0.15 0 0 0 0 0.31 0 0 0 0.2 0"/>
<feBlend mode="normal" in2="effect1_dropShadow" result="effect2_dropShadow"/>
<feColorMatrix in="SourceAlpha" type="matrix" values="0 0 0 0 0 0 0 0 0 0 0 0 0 0 0 0 0 0 127 0" result="hardAlpha"/>
<feOffset dy="44"/>
<feGaussianBlur stdDeviation="22"/>
<feColorMatrix type="matrix" values="0 0 0 0 0.13 0 0 0 0 0.15 0 0 0 0 0.31 0 0 0 0.2 0"/>
<feBlend mode="normal" in2="effect2_dropShadow" result="effect3_dropShadow"/>
<feBlend mode="normal" in="SourceGraphic" in2="effect3_dropShadow" result="shape"/>
<feGaussianBlur stdDeviation="2" result="effect4_foregroundBlur"/>
</filter>
<filter id="filter10_f" x="1245.91" y="381.094" width="74.8573" height="27.9322" filterUnits="userSpaceOnUse" color-interpolation-filters="sRGB">
<feFlood flood-opacity="0" result="BackgroundImageFix"/>
<feBlend mode="normal" in="SourceGraphic" in2="BackgroundImageFix" result="shape"/>
<feGaussianBlur stdDeviation="2.5" result="effect1_foregroundBlur"/>
</filter>
<filter id="filter11_dddf" x="173.719" y="239.656" width="193.995" height="136.909" filterUnits="userSpaceOnUse" color-interpolation-filters="sRGB">
<feFlood flood-opacity="0" result="BackgroundImageFix"/>
<feColorMatrix in="SourceAlpha" type="matrix" values="0 0 0 0 0 0 0 0 0 0 0 0 0 0 0 0 0 0 127 0" result="hardAlpha"/>
<feOffset dy="24"/>
<feGaussianBlur stdDeviation="12"/>
<feColorMatrix type="matrix" values="0 0 0 0 0.202645 0 0 0 0 0.237189 0 0 0 0 0.553838 0 0 0 0.2 0"/>
<feBlend mode="normal" in2="BackgroundImageFix" result="effect1_dropShadow"/>
<feColorMatrix in="SourceAlpha" type="matrix" values="0 0 0 0 0 0 0 0 0 0 0 0 0 0 0 0 0 0 127 0" result="hardAlpha"/>
<feOffset dy="34"/>
<feGaussianBlur stdDeviation="17"/>
<feColorMatrix type="matrix" values="0 0 0 0 0.13 0 0 0 0 0.15 0 0 0 0 0.31 0 0 0 0.2 0"/>
<feBlend mode="normal" in2="effect1_dropShadow" result="effect2_dropShadow"/>
<feColorMatrix in="SourceAlpha" type="matrix" values="0 0 0 0 0 0 0 0 0 0 0 0 0 0 0 0 0 0 127 0" result="hardAlpha"/>
<feOffset dy="44"/>
<feGaussianBlur stdDeviation="22"/>
<feColorMatrix type="matrix" values="0 0 0 0 0.13 0 0 0 0 0.15 0 0 0 0 0.31 0 0 0 0.2 0"/>
<feBlend mode="normal" in2="effect2_dropShadow" result="effect3_dropShadow"/>
<feBlend mode="normal" in="SourceGraphic" in2="effect3_dropShadow" result="shape"/>
<feGaussianBlur stdDeviation="2" result="effect4_foregroundBlur"/>
</filter>
<filter id="filter12_f" x="231.429" y="252.011" width="78.0399" height="31.9321" filterUnits="userSpaceOnUse" color-interpolation-filters="sRGB">
<feFlood flood-opacity="0" result="BackgroundImageFix"/>
<feBlend mode="normal" in="SourceGraphic" in2="BackgroundImageFix" result="shape"/>
<feGaussianBlur stdDeviation="3.5" result="effect1_foregroundBlur"/>
</filter>
<filter id="filter13_dddf" x="58.1751" y="80.1299" width="193.995" height="135.909" filterUnits="userSpaceOnUse" color-interpolation-filters="sRGB">
<feFlood flood-opacity="0" result="BackgroundImageFix"/>
<feColorMatrix in="SourceAlpha" type="matrix" values="0 0 0 0 0 0 0 0 0 0 0 0 0 0 0 0 0 0 127 0" result="hardAlpha"/>
<feOffset dy="24"/>
<feGaussianBlur stdDeviation="12"/>
<feColorMatrix type="matrix" values="0 0 0 0 0.202645 0 0 0 0 0.237189 0 0 0 0 0.553838 0 0 0 0.2 0"/>
<feBlend mode="normal" in2="BackgroundImageFix" result="effect1_dropShadow"/>
<feColorMatrix in="SourceAlpha" type="matrix" values="0 0 0 0 0 0 0 0 0 0 0 0 0 0 0 0 0 0 127 0" result="hardAlpha"/>
<feOffset dy="34"/>
<feGaussianBlur stdDeviation="17"/>
<feColorMatrix type="matrix" values="0 0 0 0 0.13 0 0 0 0 0.15 0 0 0 0 0.31 0 0 0 0.2 0"/>
<feBlend mode="normal" in2="effect1_dropShadow" result="effect2_dropShadow"/>
<feColorMatrix in="SourceAlpha" type="matrix" values="0 0 0 0 0 0 0 0 0 0 0 0 0 0 0 0 0 0 127 0" result="hardAlpha"/>
<feOffset dy="44"/>
<feGaussianBlur stdDeviation="22"/>
<feColorMatrix type="matrix" values="0 0 0 0 0.13 0 0 0 0 0.15 0 0 0 0 0.31 0 0 0 0.2 0"/>
<feBlend mode="normal" in2="effect2_dropShadow" result="effect3_dropShadow"/>
<feBlend mode="normal" in="SourceGraphic" in2="effect3_dropShadow" result="shape"/>
<feGaussianBlur stdDeviation="1.5" result="effect4_foregroundBlur"/>
</filter>
<filter id="filter14_f" x="125.923" y="95.4841" width="58.6221" height="23.9322" filterUnits="userSpaceOnUse" color-interpolation-filters="sRGB">
<feFlood flood-opacity="0" result="BackgroundImageFix"/>
<feBlend mode="normal" in="SourceGraphic" in2="BackgroundImageFix" result="shape"/>
<feGaussianBlur stdDeviation="1.5" result="effect1_foregroundBlur"/>
</filter>
<filter id="filter15_dddf" x="948.148" y="282.655" width="193.995" height="136.909" filterUnits="userSpaceOnUse" color-interpolation-filters="sRGB">
<feFlood flood-opacity="0" result="BackgroundImageFix"/>
<feColorMatrix in="SourceAlpha" type="matrix" values="0 0 0 0 0 0 0 0 0 0 0 0 0 0 0 0 0 0 127 0" result="hardAlpha"/>
<feOffset dy="24"/>
<feGaussianBlur stdDeviation="12"/>
<feColorMatrix type="matrix" values="0 0 0 0 0.202645 0 0 0 0 0.237189 0 0 0 0 0.553838 0 0 0 0.2 0"/>
<feBlend mode="normal" in2="BackgroundImageFix" result="effect1_dropShadow"/>
<feColorMatrix in="SourceAlpha" type="matrix" values="0 0 0 0 0 0 0 0 0 0 0 0 0 0 0 0 0 0 127 0" result="hardAlpha"/>
<feOffset dy="34"/>
<feGaussianBlur stdDeviation="17"/>
<feColorMatrix type="matrix" values="0 0 0 0 0.13 0 0 0 0 0.15 0 0 0 0 0.31 0 0 0 0.2 0"/>
<feBlend mode="normal" in2="effect1_dropShadow" result="effect2_dropShadow"/>
<feColorMatrix in="SourceAlpha" type="matrix" values="0 0 0 0 0 0 0 0 0 0 0 0 0 0 0 0 0 0 127 0" result="hardAlpha"/>
<feOffset dy="44"/>
<feGaussianBlur stdDeviation="22"/>
<feColorMatrix type="matrix" values="0 0 0 0 0.13 0 0 0 0 0.15 0 0 0 0 0.31 0 0 0 0.2 0"/>
<feBlend mode="normal" in2="effect2_dropShadow" result="effect3_dropShadow"/>
<feBlend mode="normal" in="SourceGraphic" in2="effect3_dropShadow" result="shape"/>
<feGaussianBlur stdDeviation="2" result="effect4_foregroundBlur"/>
</filter>
<filter id="filter16_f" x="1014.12" y="297.05" width="62.1187" height="27.8911" filterUnits="userSpaceOnUse" color-interpolation-filters="sRGB">
<feFlood flood-opacity="0" result="BackgroundImageFix"/>
<feBlend mode="normal" in="SourceGraphic" in2="BackgroundImageFix" result="shape"/>
<feGaussianBlur stdDeviation="2.5" result="effect1_foregroundBlur"/>
</filter>
<filter id="filter17_dddf" x="-1.98409" y="339.986" width="193.995" height="136.909" filterUnits="userSpaceOnUse" color-interpolation-filters="sRGB">
<feFlood flood-opacity="0" result="BackgroundImageFix"/>
<feColorMatrix in="SourceAlpha" type="matrix" values="0 0 0 0 0 0 0 0 0 0 0 0 0 0 0 0 0 0 127 0" result="hardAlpha"/>
<feOffset dy="24"/>
<feGaussianBlur stdDeviation="12"/>
<feColorMatrix type="matrix" values="0 0 0 0 0.202645 0 0 0 0 0.237189 0 0 0 0 0.553838 0 0 0 0.2 0"/>
<feBlend mode="normal" in2="BackgroundImageFix" result="effect1_dropShadow"/>
<feColorMatrix in="SourceAlpha" type="matrix" values="0 0 0 0 0 0 0 0 0 0 0 0 0 0 0 0 0 0 127 0" result="hardAlpha"/>
<feOffset dy="34"/>
<feGaussianBlur stdDeviation="17"/>
<feColorMatrix type="matrix" values="0 0 0 0 0.13 0 0 0 0 0.15 0 0 0 0 0.31 0 0 0 0.2 0"/>
<feBlend mode="normal" in2="effect1_dropShadow" result="effect2_dropShadow"/>
<feColorMatrix in="SourceAlpha" type="matrix" values="0 0 0 0 0 0 0 0 0 0 0 0 0 0 0 0 0 0 127 0" result="hardAlpha"/>
<feOffset dy="44"/>
<feGaussianBlur stdDeviation="22"/>
<feColorMatrix type="matrix" values="0 0 0 0 0.13 0 0 0 0 0.15 0 0 0 0 0.31 0 0 0 0.2 0"/>
<feBlend mode="normal" in2="effect2_dropShadow" result="effect3_dropShadow"/>
<feBlend mode="normal" in="SourceGraphic" in2="effect3_dropShadow" result="shape"/>
<feGaussianBlur stdDeviation="2" result="effect4_foregroundBlur"/>
</filter>
<filter id="filter18_f" x="63.7635" y="354.34" width="62.6224" height="27.9322" filterUnits="userSpaceOnUse" color-interpolation-filters="sRGB">
<feFlood flood-opacity="0" result="BackgroundImageFix"/>
<feBlend mode="normal" in="SourceGraphic" in2="BackgroundImageFix" result="shape"/>
<feGaussianBlur stdDeviation="2.5" result="effect1_foregroundBlur"/>
</filter>
<filter id="filter19_dddf" x="1061.78" y="137.461" width="193.995" height="135.909" filterUnits="userSpaceOnUse" color-interpolation-filters="sRGB">
<feFlood flood-opacity="0" result="BackgroundImageFix"/>
<feColorMatrix in="SourceAlpha" type="matrix" values="0 0 0 0 0 0 0 0 0 0 0 0 0 0 0 0 0 0 127 0" result="hardAlpha"/>
<feOffset dy="24"/>
<feGaussianBlur stdDeviation="12"/>
<feColorMatrix type="matrix" values="0 0 0 0 0.202645 0 0 0 0 0.237189 0 0 0 0 0.553838 0 0 0 0.2 0"/>
<feBlend mode="normal" in2="BackgroundImageFix" result="effect1_dropShadow"/>
<feColorMatrix in="SourceAlpha" type="matrix" values="0 0 0 0 0 0 0 0 0 0 0 0 0 0 0 0 0 0 127 0" result="hardAlpha"/>
<feOffset dy="34"/>
<feGaussianBlur stdDeviation="17"/>
<feColorMatrix type="matrix" values="0 0 0 0 0.13 0 0 0 0 0.15 0 0 0 0 0.31 0 0 0 0.2 0"/>
<feBlend mode="normal" in2="effect1_dropShadow" result="effect2_dropShadow"/>
<feColorMatrix in="SourceAlpha" type="matrix" values="0 0 0 0 0 0 0 0 0 0 0 0 0 0 0 0 0 0 127 0" result="hardAlpha"/>
<feOffset dy="44"/>
<feGaussianBlur stdDeviation="22"/>
<feColorMatrix type="matrix" values="0 0 0 0 0.13 0 0 0 0 0.15 0 0 0 0 0.31 0 0 0 0.2 0"/>
<feBlend mode="normal" in2="effect2_dropShadow" result="effect3_dropShadow"/>
<feBlend mode="normal" in="SourceGraphic" in2="effect3_dropShadow" result="shape"/>
<feGaussianBlur stdDeviation="1.5" result="effect4_foregroundBlur"/>
</filter>
<filter id="filter20_f" x="1129.09" y="152.815" width="59.0641" height="23.9321" filterUnits="userSpaceOnUse" color-interpolation-filters="sRGB">
<feFlood flood-opacity="0" result="BackgroundImageFix"/>
<feBlend mode="normal" in="SourceGraphic" in2="BackgroundImageFix" result="shape"/>
<feGaussianBlur stdDeviation="1.5" result="effect1_foregroundBlur"/>
</filter>
<clipPath id="clip0">
<rect width="1440" height="537" fill="white"/>
</clipPath>
</defs>
</svg>
