<svg width="110" height="33" viewBox="0 0 110 33" fill="none" xmlns="http://www.w3.org/2000/svg">
<path d="M106.086 33H3.85326C1.72904 33 0 31.2444 0 29.0953V3.89895C0 1.749 1.72904 0 3.85326 0H106.086C108.21 0 110 1.749 110 3.89895V29.0953C110 31.2444 108.21 33 106.086 33Z" fill="#A6A6A6"/>
<path d="M109.211 29.0962C109.211 30.8419 107.815 32.256 106.087 32.256H3.85329C2.1267 32.256 0.72522 30.8419 0.72522 29.0962V3.89825C0.72522 2.15338 2.1267 0.734375 3.85329 0.734375H106.086C107.815 0.734375 109.21 2.15338 109.21 3.89825L109.211 29.0962Z" fill="black"/>
<path d="M24.5488 16.3219C24.5252 13.6629 26.6991 12.3693 26.7985 12.3091C25.5673 10.4916 23.659 10.2433 22.9884 10.2235C21.3857 10.0527 19.831 11.1945 19.0146 11.1945C18.1818 11.1945 16.9246 10.24 15.5695 10.268C13.8258 10.2952 12.1946 11.3174 11.2999 12.9047C9.45354 16.1412 10.8306 20.8973 12.5995 23.5134C13.4844 24.7946 14.5184 26.2252 15.8718 26.1748C17.1959 26.1196 17.6905 25.3201 19.2884 25.3201C20.8715 25.3201 21.336 26.1748 22.7163 26.1427C24.1373 26.1196 25.032 24.8557 25.8859 23.5629C26.9085 22.0944 27.3192 20.6482 27.3355 20.5739C27.3021 20.5624 24.5757 19.5088 24.5488 16.3219Z" fill="white"/>
<path d="M21.9414 8.50233C22.6536 7.60061 23.1408 6.37383 23.0056 5.12891C21.9748 5.17511 20.6858 5.85078 19.9435 6.73271C19.2867 7.50986 18.7001 8.78366 18.8516 9.98156C20.0095 10.069 21.1983 9.39003 21.9414 8.50233Z" fill="white"/>
<path d="M43.7107 25.9903H41.8603L40.8466 22.7654H37.3234L36.3578 25.9903H34.5563L38.0469 15.0112H40.2029L43.7107 25.9903ZM40.5411 21.4124L39.6244 18.5455C39.5275 18.2527 39.3458 17.563 39.0777 16.4773H39.0451C38.9383 16.9442 38.7664 17.6339 38.5301 18.5455L37.6298 21.4124H40.5411Z" fill="white"/>
<path d="M52.6875 21.9347C52.6875 23.2811 52.3282 24.3453 51.6095 25.1266C50.9658 25.8221 50.1665 26.1694 49.2124 26.1694C48.1824 26.1694 47.4426 25.7948 46.992 25.0457H46.9594V29.2161H45.2222V20.6798C45.2222 19.8334 45.2002 18.9647 45.1578 18.0737H46.6856L46.7826 19.3285H46.8152C47.3945 18.383 48.2737 17.9111 49.4535 17.9111C50.3759 17.9111 51.1459 18.2799 51.7619 19.0183C52.3795 19.7575 52.6875 20.7293 52.6875 21.9347ZM50.9178 21.999C50.9178 21.2285 50.7466 20.5932 50.4028 20.0933C50.0272 19.5719 49.5228 19.3112 48.8905 19.3112C48.4619 19.3112 48.0724 19.4564 47.7245 19.7426C47.3758 20.0314 47.1476 20.4084 47.0409 20.8754C46.9871 21.0932 46.9602 21.2714 46.9602 21.4116V22.7316C46.9602 23.3075 47.1346 23.7934 47.4833 24.1902C47.8321 24.587 48.2851 24.785 48.8424 24.785C49.4967 24.785 50.006 24.5293 50.3702 24.0194C50.7352 23.5088 50.9178 22.8356 50.9178 21.999Z" fill="white"/>
<path d="M61.6806 21.9347C61.6806 23.2811 61.3213 24.3453 60.6018 25.1266C59.9589 25.8221 59.1596 26.1694 58.2054 26.1694C57.1755 26.1694 56.4357 25.7948 55.9859 25.0457H55.9533V29.2161H54.2161V20.6798C54.2161 19.8334 54.1941 18.9647 54.1517 18.0737H55.6795L55.7765 19.3285H55.8091C56.3876 18.383 57.2668 17.9111 58.4474 17.9111C59.369 17.9111 60.139 18.2799 60.7566 19.0183C61.3718 19.7575 61.6806 20.7293 61.6806 21.9347ZM59.9108 21.999C59.9108 21.2285 59.7389 20.5932 59.3951 20.0933C59.0194 19.5719 58.5167 19.3112 57.8836 19.3112C57.4542 19.3112 57.0655 19.4564 56.7168 19.7426C56.368 20.0314 56.1407 20.4084 56.034 20.8754C55.981 21.0932 55.9533 21.2714 55.9533 21.4116V22.7316C55.9533 23.3075 56.1277 23.7934 56.4748 24.1902C56.8235 24.5862 57.2766 24.785 57.8355 24.785C58.4898 24.785 58.9991 24.5293 59.3633 24.0194C59.7283 23.5088 59.9108 22.8356 59.9108 21.999Z" fill="white"/>
<path d="M71.7354 22.9117C71.7354 23.8456 71.4152 24.6054 70.7723 25.192C70.0659 25.833 69.0824 26.1531 67.8186 26.1531C66.6518 26.1531 65.7164 25.9254 65.0083 25.4692L65.4108 24.0031C66.1735 24.4701 67.0103 24.7044 67.9221 24.7044C68.5764 24.7044 69.0856 24.5542 69.4515 24.2556C69.8157 23.9569 69.9974 23.556 69.9974 23.056C69.9974 22.6105 69.8475 22.2352 69.5468 21.9307C69.2478 21.6263 68.7483 21.3433 68.0508 21.0818C66.1523 20.3649 65.2039 19.3147 65.2039 17.9336C65.2039 17.0311 65.5363 16.291 66.202 15.7152C66.8653 15.1385 67.7502 14.8506 68.8567 14.8506C69.8434 14.8506 70.6631 15.0247 71.3174 15.372L70.8831 16.8058C70.272 16.4692 69.581 16.3009 68.8078 16.3009C68.1967 16.3009 67.7192 16.4536 67.377 16.7572C67.0877 17.0286 66.9427 17.3594 66.9427 17.7513C66.9427 18.1852 67.1081 18.5441 67.4405 18.8263C67.7298 19.087 68.2553 19.3691 69.018 19.6735C69.951 20.0539 70.6362 20.4985 71.077 21.0084C71.5162 21.5166 71.7354 22.1527 71.7354 22.9117Z" fill="white"/>
<path d="M77.4791 19.3936H75.5642V23.2373C75.5642 24.2149 75.9016 24.7034 76.5779 24.7034C76.8883 24.7034 77.1458 24.6761 77.3495 24.6217L77.3976 25.9573C77.0554 26.0869 76.6048 26.1521 76.0466 26.1521C75.3605 26.1521 74.8244 25.94 74.4374 25.5168C74.052 25.0927 73.858 24.3816 73.858 23.3825V19.392H72.7173V18.072H73.858V16.6225L75.5642 16.1011V18.072H77.4791V19.3936Z" fill="white"/>
<path d="M86.1185 21.967C86.1185 23.1839 85.7747 24.1829 85.0886 24.9642C84.3691 25.7686 83.4142 26.1695 82.2237 26.1695C81.0765 26.1695 80.163 25.7843 79.4819 25.0137C78.8007 24.2432 78.4601 23.2705 78.4601 22.0982C78.4601 20.8714 78.8105 19.8665 79.5136 19.0853C80.2152 18.3032 81.162 17.9121 82.3525 17.9121C83.4997 17.9121 84.4229 18.2974 85.1196 19.0688C85.7861 19.817 86.1185 20.7831 86.1185 21.967ZM84.3162 22.0239C84.3162 21.2938 84.1622 20.6676 83.8501 20.1454C83.4859 19.5134 82.9652 19.1983 82.2905 19.1983C81.5922 19.1983 81.0618 19.5143 80.6976 20.1454C80.3855 20.6684 80.2315 21.3045 80.2315 22.0569C80.2315 22.787 80.3855 23.4132 80.6976 23.9346C81.0732 24.5666 81.5979 24.8817 82.275 24.8817C82.9383 24.8817 83.459 24.56 83.8346 23.9181C84.1548 23.386 84.3162 22.7532 84.3162 22.0239Z" fill="white"/>
<path d="M91.7653 19.6205C91.5934 19.5884 91.41 19.5719 91.2177 19.5719C90.6066 19.5719 90.134 19.8053 89.8016 20.2731C89.5123 20.6856 89.3673 21.207 89.3673 21.8365V25.9904H87.6309L87.6472 20.5668C87.6472 19.6544 87.6252 18.8236 87.582 18.0745H89.0951L89.1587 19.5892H89.2068C89.3901 19.0686 89.6794 18.6495 90.0754 18.3352C90.4624 18.0522 90.8804 17.9111 91.331 17.9111C91.4915 17.9111 91.6365 17.9227 91.7653 17.9433V19.6205Z" fill="white"/>
<path d="M99.5345 21.6577C99.5345 21.9728 99.5142 22.2385 99.471 22.4554H94.2594C94.2798 23.2375 94.5316 23.8357 95.0156 24.2482C95.4548 24.6169 96.0227 24.8017 96.7202 24.8017C97.4918 24.8017 98.1958 24.6772 98.8289 24.4272L99.1011 25.6482C98.3612 25.9749 97.4877 26.1374 96.4798 26.1374C95.2674 26.1374 94.3157 25.7761 93.6231 25.0542C92.9321 24.3323 92.5858 23.3629 92.5858 22.1469C92.5858 20.9531 92.9077 19.959 93.5522 19.1662C94.2269 18.3197 95.1386 17.8965 96.2859 17.8965C97.4128 17.8965 98.2659 18.3197 98.8452 19.1662C99.304 19.8385 99.5345 20.6701 99.5345 21.6577ZM97.878 21.2014C97.8894 20.68 97.7762 20.2296 97.5407 19.8493C97.24 19.36 96.778 19.1158 96.1563 19.1158C95.5884 19.1158 95.1264 19.3543 94.7736 19.8328C94.4843 20.2131 94.3124 20.6693 94.2594 21.2006H97.878V21.2014Z" fill="white"/>
<path d="M39.9667 8.25742C39.9667 9.22845 39.6791 9.9594 39.1046 10.4503C38.5726 10.9032 37.8164 11.1301 36.837 11.1301C36.3514 11.1301 35.9358 11.1086 35.5879 11.0657V5.76015C36.0417 5.6859 36.5306 5.64795 37.0586 5.64795C37.9916 5.64795 38.6948 5.85337 39.169 6.26422C39.7003 6.7287 39.9667 7.39282 39.9667 8.25742ZM39.0663 8.28135C39.0663 7.65187 38.9017 7.16925 38.5726 6.83265C38.2434 6.49687 37.7626 6.32857 37.1295 6.32857C36.8606 6.32857 36.6317 6.34672 36.4418 6.38467V10.4181C36.5469 10.4346 36.7392 10.442 37.0187 10.442C37.6722 10.442 38.1766 10.258 38.5318 9.8901C38.8871 9.52215 39.0663 8.9859 39.0663 8.28135Z" fill="white"/>
<path d="M44.7408 9.10532C44.7408 9.70344 44.5721 10.1935 44.2348 10.5779C43.8811 10.9731 43.4126 11.1703 42.8276 11.1703C42.2637 11.1703 41.8148 10.9814 41.4799 10.6019C41.1458 10.2232 40.9788 9.74552 40.9788 9.16967C40.9788 8.56742 41.1507 8.07324 41.4962 7.68962C41.8416 7.30599 42.3061 7.11377 42.8911 7.11377C43.455 7.11377 43.908 7.30269 44.2511 7.68137C44.577 8.04932 44.7408 8.52452 44.7408 9.10532ZM43.8551 9.13337C43.8551 8.77449 43.7785 8.46677 43.6261 8.21019C43.4468 7.89999 43.1918 7.74489 42.8602 7.74489C42.5171 7.74489 42.2564 7.89999 42.0771 8.21019C41.9239 8.46677 41.8482 8.77944 41.8482 9.14904C41.8482 9.50792 41.9248 9.81564 42.0771 10.0722C42.2621 10.3824 42.5196 10.5375 42.852 10.5375C43.1779 10.5375 43.4338 10.3799 43.6179 10.064C43.776 9.80244 43.8551 9.49224 43.8551 9.13337Z" fill="white"/>
<path d="M51.1418 7.19336L49.94 11.0824H49.1578L48.6599 9.39363C48.5336 8.97206 48.431 8.55296 48.3511 8.13716H48.3356C48.2615 8.56451 48.1588 8.98278 48.0268 9.39363L47.498 11.0824H46.7068L45.5767 7.19336H46.4542L46.8885 9.04218C46.9936 9.47943 47.08 9.89606 47.1493 10.2904H47.1647C47.2283 9.96536 47.3334 9.55121 47.4817 9.05043L48.0268 7.19418H48.7227L49.245 9.01083C49.3713 9.45386 49.4739 9.88038 49.553 10.2912H49.5766C49.6344 9.89111 49.7216 9.46458 49.8373 9.01083L50.3034 7.19418H51.1418V7.19336Z" fill="white"/>
<path d="M55.5688 11.0821H54.7149V8.85455C54.7149 8.16815 54.4574 7.82495 53.9408 7.82495C53.6874 7.82495 53.4829 7.919 53.324 8.10793C53.1668 8.29685 53.0869 8.5196 53.0869 8.77453V11.0812H52.233V8.30428C52.233 7.96273 52.2224 7.5923 52.202 7.19135H52.9525L52.9924 7.79938H53.016C53.1154 7.61045 53.2637 7.45453 53.4585 7.32995C53.6899 7.18475 53.949 7.11133 54.2325 7.11133C54.5911 7.11133 54.8893 7.22848 55.1264 7.4636C55.4214 7.75153 55.5688 8.18135 55.5688 8.75225V11.0821Z" fill="white"/>
<path d="M57.9235 11.0822H57.0704V5.40869H57.9235V11.0822Z" fill="white"/>
<path d="M62.951 9.10532C62.951 9.70344 62.7823 10.1935 62.445 10.5779C62.0913 10.9731 61.622 11.1703 61.0378 11.1703C60.4731 11.1703 60.0241 10.9814 59.6901 10.6019C59.356 10.2232 59.189 9.74552 59.189 9.16967C59.189 8.56742 59.3609 8.07324 59.7064 7.68962C60.0519 7.30599 60.5163 7.11377 61.1005 7.11377C61.6652 7.11377 62.1174 7.30269 62.4613 7.68137C62.7872 8.04932 62.951 8.52452 62.951 9.10532ZM62.0644 9.13337C62.0644 8.77449 61.9879 8.46677 61.8355 8.21019C61.657 7.89999 61.4012 7.74489 61.0704 7.74489C60.7265 7.74489 60.4658 7.89999 60.2873 8.21019C60.1342 8.46677 60.0584 8.77944 60.0584 9.14904C60.0584 9.50792 60.135 9.81564 60.2873 10.0722C60.4723 10.3824 60.7298 10.5375 61.0622 10.5375C61.3882 10.5375 61.6432 10.3799 61.8273 10.064C61.9862 9.80244 62.0644 9.49224 62.0644 9.13337Z" fill="white"/>
<path d="M67.0838 11.082H66.317L66.2535 10.634H66.2298C65.9675 10.9913 65.5935 11.1703 65.1078 11.1703C64.7452 11.1703 64.4519 11.0523 64.2311 10.818C64.0306 10.6052 63.9304 10.3403 63.9304 10.026C63.9304 9.55082 64.126 9.18864 64.5195 8.93784C64.9123 8.68704 65.4647 8.56412 66.1761 8.56989V8.49729C66.1761 7.98497 65.9104 7.72922 65.3783 7.72922C64.9995 7.72922 64.6654 7.82574 64.3769 8.01714L64.2034 7.44954C64.5603 7.22597 65.0011 7.11377 65.5209 7.11377C66.5248 7.11377 67.0283 7.65002 67.0283 8.72252V10.1547C67.0283 10.5433 67.0471 10.8527 67.0838 11.082ZM66.1972 9.74552V9.14574C65.2553 9.12924 64.7843 9.39077 64.7843 9.92949C64.7843 10.1324 64.8381 10.2842 64.9481 10.3857C65.0581 10.4872 65.1983 10.5375 65.3653 10.5375C65.5527 10.5375 65.7279 10.4773 65.8876 10.3577C66.0481 10.2372 66.1467 10.0846 66.1834 9.89732C66.1923 9.85524 66.1972 9.80409 66.1972 9.74552Z" fill="white"/>
<path d="M71.936 11.0822H71.1782L71.1382 10.4577H71.1146C70.8726 10.9329 70.4603 11.1705 69.881 11.1705C69.4182 11.1705 69.0328 10.9865 68.7272 10.6186C68.4217 10.2506 68.2693 9.77294 68.2693 9.18637C68.2693 8.55689 68.4347 8.04704 68.7671 7.65764C69.089 7.29464 69.4834 7.11314 69.9527 7.11314C70.4685 7.11314 70.8294 7.28887 71.0348 7.64114H71.0511V5.40869H71.9058V10.0345C71.9058 10.4131 71.9156 10.7621 71.936 11.0822ZM71.0511 9.44212V8.79367C71.0511 8.68147 71.0429 8.59072 71.0274 8.52142C70.9794 8.31352 70.8759 8.13862 70.7186 7.99754C70.5597 7.85647 70.3682 7.78552 70.1474 7.78552C69.8288 7.78552 69.5795 7.91339 69.3962 8.16997C69.2145 8.42654 69.1224 8.75407 69.1224 9.15419C69.1224 9.53864 69.2096 9.85049 69.3848 10.0906C69.5697 10.3463 69.8191 10.4742 70.1311 10.4742C70.4114 10.4742 70.6355 10.3678 70.8058 10.1541C70.9704 9.95692 71.0511 9.71932 71.0511 9.44212Z" fill="white"/>
<path d="M79.2392 9.10532C79.2392 9.70344 79.0705 10.1935 78.7332 10.5779C78.3795 10.9731 77.9118 11.1703 77.326 11.1703C76.763 11.1703 76.314 10.9814 75.9783 10.6019C75.6442 10.2232 75.4772 9.74552 75.4772 9.16967C75.4772 8.56742 75.6491 8.07324 75.9946 7.68962C76.3401 7.30599 76.8045 7.11377 77.3904 7.11377C77.9534 7.11377 78.4073 7.30269 78.7495 7.68137C79.0754 8.04932 79.2392 8.52452 79.2392 9.10532ZM78.3543 9.13337C78.3543 8.77449 78.2777 8.46677 78.1253 8.21019C77.9452 7.89999 77.691 7.74489 77.3586 7.74489C77.0164 7.74489 76.7556 7.89999 76.5755 8.21019C76.4224 8.46677 76.3466 8.77944 76.3466 9.14904C76.3466 9.50792 76.4232 9.81564 76.5755 10.0722C76.7605 10.3824 77.018 10.5375 77.3504 10.5375C77.6764 10.5375 77.933 10.3799 78.1172 10.064C78.2744 9.80244 78.3543 9.49224 78.3543 9.13337Z" fill="white"/>
<path d="M83.8306 11.0821H82.9775V8.85455C82.9775 8.16815 82.72 7.82495 82.2026 7.82495C81.9492 7.82495 81.7447 7.919 81.5866 8.10793C81.4285 8.29685 81.3495 8.5196 81.3495 8.77453V11.0812H80.4947V8.30428C80.4947 7.96273 80.485 7.5923 80.4646 7.19135H81.2142L81.2542 7.79938H81.2778C81.378 7.61045 81.5263 7.45453 81.7202 7.32995C81.9525 7.18475 82.2108 7.11133 82.4951 7.11133C82.8528 7.11133 83.151 7.22848 83.3882 7.4636C83.6839 7.75153 83.8306 8.18135 83.8306 8.75225V11.0821Z" fill="white"/>
<path d="M89.5775 7.84078H88.6372V9.73003C88.6372 10.2102 88.8042 10.4503 89.135 10.4503C89.2882 10.4503 89.4153 10.4371 89.5156 10.4098L89.5376 11.0657C89.3689 11.1301 89.1473 11.1622 88.8743 11.1622C88.537 11.1622 88.2746 11.0583 88.0847 10.8504C87.8941 10.6425 87.7996 10.2927 87.7996 9.80181V7.84078H87.2382V7.19316H87.7996V6.48036L88.6364 6.22461V7.19233H89.5767V7.84078H89.5775Z" fill="white"/>
<path d="M94.0981 11.0822H93.2433V8.87122C93.2433 8.17409 92.9858 7.82512 92.4701 7.82512C92.0741 7.82512 91.8035 8.02724 91.6552 8.43149C91.63 8.51647 91.6153 8.62042 91.6153 8.74252V11.0814H90.7622V5.40869H91.6153V7.75252H91.6316C91.9005 7.32599 92.2859 7.11314 92.7854 7.11314C93.139 7.11314 93.4315 7.23029 93.6638 7.46542C93.953 7.75829 94.0981 8.19389 94.0981 8.76974V11.0822Z" fill="white"/>
<path d="M98.7613 8.95362C98.7613 9.10872 98.7499 9.23907 98.7296 9.3455H96.1686C96.18 9.72995 96.3022 10.0228 96.5393 10.2258C96.7561 10.4073 97.0356 10.498 97.3778 10.498C97.7567 10.498 98.1021 10.437 98.4134 10.314L98.547 10.9146C98.1828 11.0747 97.7542 11.1547 97.258 11.1547C96.6632 11.1547 96.1947 10.9773 95.8557 10.6226C95.5151 10.2678 95.3464 9.79182 95.3464 9.19452C95.3464 8.60795 95.5037 8.11954 95.8207 7.73014C96.1515 7.31434 96.5988 7.10645 97.1635 7.10645C97.7159 7.10645 98.1356 7.31434 98.4191 7.73014C98.6481 8.06015 98.7613 8.46852 98.7613 8.95362ZM97.9465 8.73004C97.953 8.47347 97.8968 8.25237 97.7811 8.06592C97.6328 7.82585 97.4071 7.7054 97.1016 7.7054C96.8229 7.7054 96.5956 7.82255 96.422 8.05767C96.2802 8.24495 96.1963 8.46852 96.1686 8.73004H97.9465Z" fill="white"/>
</svg>
