<svg width="110" height="33" viewBox="0 0 110 33" fill="none" xmlns="http://www.w3.org/2000/svg">
<path d="M105.926 33H4.07407C1.79259 33 0 31.185 0 28.875V4.125C0 1.815 1.79259 0 4.07407 0H105.926C108.207 0 110 1.815 110 4.125V28.875C110 31.185 108.207 33 105.926 33Z" fill="black"/>
<path d="M105.926 0.66C107.8 0.66 109.348 2.2275 109.348 4.125V28.875C109.348 30.7725 107.8 32.34 105.926 32.34H4.07407C2.2 32.34 0.651852 30.7725 0.651852 28.875V4.125C0.651852 2.2275 2.2 0.66 4.07407 0.66H105.926ZM105.926 0H4.07407C1.79259 0 0 1.8975 0 4.125V28.875C0 31.185 1.79259 33 4.07407 33H105.926C108.207 33 110 31.185 110 28.875V4.125C110 1.8975 108.207 0 105.926 0Z" fill="#A6A6A6"/>
<path d="M38.6222 8.41488C38.6222 9.07488 38.4592 9.65238 38.0518 10.0649C37.5629 10.5599 36.9925 10.8074 36.2592 10.8074C35.5259 10.8074 34.9555 10.5599 34.4666 10.0649C33.9777 9.56988 33.7333 8.99238 33.7333 8.24988C33.7333 7.50738 33.9777 6.92988 34.4666 6.43488C34.9555 5.93988 35.5259 5.69238 36.2592 5.69238C36.5851 5.69238 36.9111 5.77488 37.237 5.93988C37.5629 6.10488 37.8073 6.26988 37.9703 6.51738L37.5629 6.92988C37.237 6.51738 36.8296 6.35238 36.2592 6.35238C35.7703 6.35238 35.2814 6.51738 34.9555 6.92988C34.5481 7.25988 34.3851 7.75488 34.3851 8.33238C34.3851 8.90988 34.5481 9.40488 34.9555 9.73488C35.3629 10.0649 35.7703 10.3124 36.2592 10.3124C36.8296 10.3124 37.237 10.1474 37.6444 9.73488C37.8888 9.48738 38.0518 9.15738 38.0518 8.74488H36.2592V8.08488H38.6222C38.6222 8.16738 38.6222 8.33238 38.6222 8.41488Z" fill="white" stroke="white" stroke-width="0.2" stroke-miterlimit="10"/>
<path d="M42.3703 6.3524H40.1703V7.9199H42.2073V8.4974H40.1703V10.0649H42.3703V10.7249H39.5184V5.7749H42.3703V6.3524Z" fill="white" stroke="white" stroke-width="0.2" stroke-miterlimit="10"/>
<path d="M45.0593 10.7249H44.4074V6.3524H43.0222V5.7749H46.4444V6.3524H45.0593V10.7249Z" fill="white" stroke="white" stroke-width="0.2" stroke-miterlimit="10"/>
<path d="M48.8074 10.7249V5.7749H49.4592V10.7249H48.8074Z" fill="white" stroke="white" stroke-width="0.2" stroke-miterlimit="10"/>
<path d="M52.2295 10.7249H51.5777V6.3524H50.1925V5.7749H53.5332V6.3524H52.1481V10.7249H52.2295Z" fill="white" stroke="white" stroke-width="0.2" stroke-miterlimit="10"/>
<path d="M59.9704 10.0649C59.4815 10.5599 58.9111 10.8074 58.1778 10.8074C57.4444 10.8074 56.8741 10.5599 56.3852 10.0649C55.8963 9.56988 55.6519 8.99238 55.6519 8.24988C55.6519 7.50738 55.8963 6.92988 56.3852 6.43488C56.8741 5.93988 57.4444 5.69238 58.1778 5.69238C58.9111 5.69238 59.4815 5.93988 59.9704 6.43488C60.4593 6.92988 60.7037 7.50738 60.7037 8.24988C60.7037 8.99238 60.4593 9.56988 59.9704 10.0649ZM56.8741 9.65238C57.2 9.98238 57.6889 10.2299 58.1778 10.2299C58.6667 10.2299 59.1556 10.0649 59.4815 9.65238C59.8074 9.32238 60.0519 8.82738 60.0519 8.24988C60.0519 7.67238 59.8889 7.17738 59.4815 6.84738C59.1556 6.51738 58.6667 6.26988 58.1778 6.26988C57.6889 6.26988 57.2 6.43488 56.8741 6.84738C56.5482 7.17738 56.3037 7.67238 56.3037 8.24988C56.3037 8.82738 56.4667 9.32238 56.8741 9.65238Z" fill="white" stroke="white" stroke-width="0.2" stroke-miterlimit="10"/>
<path d="M61.6 10.7249V5.7749H62.3333L64.6963 9.6524V8.6624V5.7749H65.3481V10.7249H64.6963L62.1704 6.6824V7.6724V10.7249H61.6Z" fill="white" stroke="white" stroke-width="0.2" stroke-miterlimit="10"/>
<path d="M55.4889 17.9849C53.5333 17.9849 51.9852 19.4699 51.9852 21.5324C51.9852 23.5124 53.5333 25.0799 55.4889 25.0799C57.4444 25.0799 58.9926 23.5949 58.9926 21.5324C58.9926 19.3874 57.4444 17.9849 55.4889 17.9849ZM55.4889 23.5949C54.4296 23.5949 53.5333 22.6874 53.5333 21.4499C53.5333 20.2124 54.4296 19.3049 55.4889 19.3049C56.5482 19.3049 57.4445 20.1299 57.4445 21.4499C57.4445 22.6874 56.5482 23.5949 55.4889 23.5949ZM47.9111 17.9849C45.9556 17.9849 44.4074 19.4699 44.4074 21.5324C44.4074 23.5124 45.9556 25.0799 47.9111 25.0799C49.8667 25.0799 51.4148 23.5949 51.4148 21.5324C51.4148 19.3874 49.8667 17.9849 47.9111 17.9849ZM47.9111 23.5949C46.8519 23.5949 45.9556 22.6874 45.9556 21.4499C45.9556 20.2124 46.8519 19.3049 47.9111 19.3049C48.9704 19.3049 49.8667 20.1299 49.8667 21.4499C49.8667 22.6874 48.9704 23.5949 47.9111 23.5949ZM38.8667 19.0574V20.5424H42.3704C42.2889 21.3674 41.963 22.0274 41.5556 22.4399C41.0667 22.9349 40.2519 23.5124 38.8667 23.5124C36.6667 23.5124 35.037 21.7799 35.037 19.5524C35.037 17.3249 36.7482 15.5924 38.8667 15.5924C40.0074 15.5924 40.9037 16.0874 41.5556 16.6649L42.6148 15.5924C41.7185 14.7674 40.5778 14.1074 38.9482 14.1074C36.0148 14.1074 33.4889 16.5824 33.4889 19.5524C33.4889 22.5224 36.0148 24.9974 38.9482 24.9974C40.5778 24.9974 41.7185 24.5024 42.6963 23.4299C43.6741 22.4399 44 21.0374 44 19.9649C44 19.6349 44 19.3049 43.9185 19.0574H38.8667ZM75.8593 20.2124C75.5333 19.3874 74.7185 17.9849 72.9259 17.9849C71.1333 17.9849 69.6667 19.3874 69.6667 21.5324C69.6667 23.5124 71.1333 25.0799 73.0889 25.0799C74.637 25.0799 75.6148 24.0899 75.9407 23.5124L74.8 22.6874C74.3926 23.2649 73.9037 23.6774 73.0889 23.6774C72.2741 23.6774 71.7852 23.3474 71.3778 22.6049L76.0222 20.6249L75.8593 20.2124ZM71.1333 21.3674C71.1333 20.0474 72.1926 19.3049 72.9259 19.3049C73.4963 19.3049 74.0667 19.6349 74.2296 20.0474L71.1333 21.3674ZM67.3037 24.7499H68.8519V14.4374H67.3037V24.7499ZM64.8593 18.7274C64.4519 18.3149 63.8 17.9024 62.9852 17.9024C61.2741 17.9024 59.6444 19.4699 59.6444 21.4499C59.6444 23.4299 61.1926 24.9149 62.9852 24.9149C63.8 24.9149 64.4519 24.5024 64.7778 24.0899H64.8593V24.5849C64.8593 25.9049 64.1259 26.6474 62.9852 26.6474C62.0889 26.6474 61.437 25.9874 61.2741 25.4099L59.9704 25.9874C60.3778 26.8949 61.3556 28.0499 63.0667 28.0499C64.8593 28.0499 66.3259 26.9774 66.3259 24.4199V18.1499H64.8593V18.7274ZM63.0667 23.5949C62.0074 23.5949 61.1111 22.6874 61.1111 21.4499C61.1111 20.2124 62.0074 19.3049 63.0667 19.3049C64.1259 19.3049 64.9407 20.2124 64.9407 21.4499C64.9407 22.6874 64.1259 23.5949 63.0667 23.5949ZM82.9482 14.4374H79.2815V24.7499H80.8296V20.8724H82.9482C84.6593 20.8724 86.2889 19.6349 86.2889 17.6549C86.2889 15.6749 84.6593 14.4374 82.9482 14.4374ZM83.0296 19.3874H80.8296V15.8399H83.0296C84.1704 15.8399 84.8222 16.8299 84.8222 17.5724C84.7407 18.4799 84.0889 19.3874 83.0296 19.3874ZM92.4 17.9024C91.2593 17.9024 90.1185 18.3974 89.7111 19.4699L91.0963 20.0474C91.4222 19.4699 91.9111 19.3049 92.4815 19.3049C93.2963 19.3049 94.0296 19.7999 94.1111 20.6249V20.7074C93.8667 20.5424 93.2148 20.2949 92.563 20.2949C91.0963 20.2949 89.6296 21.1199 89.6296 22.6049C89.6296 24.0074 90.8519 24.9149 92.1556 24.9149C93.2148 24.9149 93.7037 24.4199 94.1111 23.9249H94.1926V24.7499H95.6593V20.7899C95.4963 18.9749 94.1111 17.9024 92.4 17.9024ZM92.237 23.5949C91.7482 23.5949 91.0148 23.3474 91.0148 22.6874C91.0148 21.8624 91.9111 21.6149 92.6445 21.6149C93.2963 21.6149 93.6222 21.7799 94.0296 21.9449C93.8667 22.9349 93.0519 23.5949 92.237 23.5949ZM100.793 18.1499L99.0815 22.6049H99L97.2074 18.1499H95.5778L98.2667 24.4199L96.7185 27.8849H98.2667L102.422 18.1499H100.793ZM87.1037 24.7499H88.6519V14.4374H87.1037V24.7499Z" fill="white"/>
<path d="M8.47412 6.1875C8.22967 6.435 8.14819 6.8475 8.14819 7.3425V25.575C8.14819 26.07 8.31116 26.4825 8.5556 26.73L8.63708 26.8125L18.7408 16.5825V16.5V16.4175L8.47412 6.1875Z" fill="url(#paint0_linear)"/>
<path d="M22 20.0477L18.6593 16.6652V16.5002V16.4177L22 13.0352L22.0815 13.1177L26.0741 15.4277C27.2149 16.0877 27.2149 17.1602 26.0741 17.8202L22 20.0477Z" fill="url(#paint1_linear)"/>
<path d="M22.0815 19.965L18.6593 16.5L8.47412 26.8125C8.88153 27.225 9.4519 27.225 10.1852 26.895L22.0815 19.965Z" fill="url(#paint2_linear)"/>
<path d="M22.0815 13.0352L10.1852 6.1877C9.4519 5.7752 8.88153 5.8577 8.47412 6.2702L18.6593 16.5002L22.0815 13.0352Z" fill="url(#paint3_linear)"/>
<path opacity="0.2" d="M22 19.8823L10.1852 26.6473C9.53338 27.0598 8.96301 26.9773 8.5556 26.6473L8.47412 26.7298L8.5556 26.8123C8.96301 27.1423 9.53338 27.2248 10.1852 26.8123L22 19.8823Z" fill="black"/>
<path opacity="0.12" d="M8.47412 26.6472C8.22967 26.3997 8.14819 25.9872 8.14819 25.4922V25.5747C8.14819 26.0697 8.31116 26.4822 8.5556 26.7297V26.6472H8.47412Z" fill="black"/>
<path opacity="0.12" d="M26.0741 17.5725L22 19.8825L22.0815 19.965L26.0741 17.655C26.6444 17.325 26.8889 16.9125 26.8889 16.5C26.8889 16.9125 26.563 17.2425 26.0741 17.5725Z" fill="black"/>
<path opacity="0.25" d="M10.1852 6.27005L26.0741 15.4276C26.563 15.7576 26.8889 16.0876 26.8889 16.5001C26.8889 16.0876 26.6445 15.6751 26.0741 15.3451L10.1852 6.18755C9.04449 5.52755 8.14819 6.02255 8.14819 7.34255V7.42505C8.14819 6.18755 9.04449 5.61005 10.1852 6.27005Z" fill="white"/>
<defs>
<linearGradient id="paint0_linear" x1="17.7627" y1="7.18558" x2="3.91827" y2="20.8591" gradientUnits="userSpaceOnUse">
<stop stop-color="#00A0FF"/>
<stop offset="0.00657445" stop-color="#00A1FF"/>
<stop offset="0.2601" stop-color="#00BEFF"/>
<stop offset="0.5122" stop-color="#00D2FF"/>
<stop offset="0.7604" stop-color="#00DFFF"/>
<stop offset="1" stop-color="#00E3FF"/>
</linearGradient>
<linearGradient id="paint1_linear" x1="27.5687" y1="16.5015" x2="7.85274" y2="16.5015" gradientUnits="userSpaceOnUse">
<stop stop-color="#FFE000"/>
<stop offset="0.4087" stop-color="#FFBD00"/>
<stop offset="0.7754" stop-color="#FFA500"/>
<stop offset="1" stop-color="#FF9C00"/>
</linearGradient>
<linearGradient id="paint2_linear" x1="20.2294" y1="18.3944" x2="1.45522" y2="36.9367" gradientUnits="userSpaceOnUse">
<stop stop-color="#FF3A44"/>
<stop offset="1" stop-color="#C31162"/>
</linearGradient>
<linearGradient id="paint3_linear" x1="5.94591" y1="0.14565" x2="14.3294" y2="8.42557" gradientUnits="userSpaceOnUse">
<stop stop-color="#32A071"/>
<stop offset="0.0685" stop-color="#2DA771"/>
<stop offset="0.4762" stop-color="#15CF74"/>
<stop offset="0.8009" stop-color="#06E775"/>
<stop offset="1" stop-color="#00F076"/>
</linearGradient>
</defs>
</svg>
