<svg width="30" height="30" viewBox="0 0 30 30" fill="none" xmlns="http://www.w3.org/2000/svg">
<path d="M26.25 30H3.75C1.65 30 0 28.35 0 26.25V3.75C0 1.65 1.65 0 3.75 0H26.25C28.35 0 30 1.65 30 3.75V26.25C30 28.35 28.35 30 26.25 30Z" fill="#D73676"/>
<path d="M15 7.95C17.325 7.95 17.55 7.95001 18.45 8.02501C19.275 8.10001 19.725 8.175 20.025 8.325C20.4 8.475 20.7 8.7 21 9C21.3 9.3 21.525 9.59999 21.675 9.97499C21.825 10.275 21.9 10.725 21.975 11.55C22.05 12.45 22.05 12.75 22.05 15C22.05 17.25 22.05 17.55 21.975 18.45C21.9 19.275 21.825 19.725 21.675 20.025C21.525 20.4 21.3 20.7 21 21C20.7 21.3 20.4 21.525 20.025 21.675C19.725 21.825 19.275 21.9 18.45 21.975C17.55 22.05 17.25 22.05 15 22.05C12.75 22.05 12.45 22.05 11.55 21.975C10.725 21.9 10.275 21.825 9.97499 21.675C9.59999 21.525 9.3 21.3 9 21C8.7 20.7 8.47498 20.4 8.32498 20.025C8.17498 19.725 8.10001 19.275 8.02501 18.45C7.95001 17.55 7.94998 17.25 7.94998 15C7.94998 12.75 7.95001 12.45 8.02501 11.55C8.10001 10.725 8.17498 10.275 8.32498 9.97499C8.47498 9.59999 8.7 9.3 9 9C9.3 8.7 9.59999 8.475 9.97499 8.325C10.275 8.175 10.725 8.10001 11.55 8.02501C12.45 7.95001 12.675 7.95 15 7.95ZM15 6.375C12.675 6.375 12.375 6.375 11.475 6.45C10.575 6.525 9.9 6.675 9.375 6.825C8.775 7.05 8.325 7.35 7.875 7.8C7.425 8.25 7.12501 8.775 6.90001 9.3C6.67501 9.825 6.52501 10.5 6.52501 11.4C6.45001 12.3 6.44998 12.6 6.44998 14.925C6.44998 17.25 6.45001 17.55 6.52501 18.45C6.60001 19.35 6.75001 20.025 6.90001 20.55C7.12501 21.15 7.425 21.6 7.875 22.05C8.325 22.5 8.85 22.8 9.375 23.025C9.9 23.25 10.575 23.4 11.475 23.4C12.375 23.475 12.675 23.475 15 23.475C17.325 23.475 17.625 23.475 18.525 23.4C19.425 23.325 20.1 23.175 20.625 23.025C21.225 22.8 21.675 22.5 22.125 22.05C22.575 21.6 22.875 21.075 23.1 20.55C23.325 20.025 23.475 19.35 23.475 18.45C23.55 17.55 23.55 17.25 23.55 14.925C23.55 12.6 23.55 12.3 23.475 11.4C23.4 10.5 23.25 9.825 23.1 9.3C22.875 8.7 22.575 8.25 22.125 7.8C21.675 7.35 21.15 7.05 20.625 6.825C20.1 6.6 19.425 6.45 18.525 6.45C17.625 6.375 17.325 6.375 15 6.375Z" fill="white"/>
<path d="M15 10.5752C12.525 10.5752 10.575 12.5252 10.575 15.0002C10.575 17.4752 12.525 19.4252 15 19.4252C17.475 19.4252 19.425 17.4752 19.425 15.0002C19.425 12.5252 17.475 10.5752 15 10.5752ZM15 17.8502C13.425 17.8502 12.15 16.5752 12.15 15.0002C12.15 13.4252 13.425 12.1502 15 12.1502C16.575 12.1502 17.85 13.4252 17.85 15.0002C17.85 16.5752 16.575 17.8502 15 17.8502Z" fill="white"/>
<path d="M19.575 11.475C20.1549 11.475 20.625 11.0049 20.625 10.425C20.625 9.8451 20.1549 9.375 19.575 9.375C18.9951 9.375 18.525 9.8451 18.525 10.425C18.525 11.0049 18.9951 11.475 19.575 11.475Z" fill="white"/>
</svg>
