<svg width="30" height="30" viewBox="0 0 30 30" fill="none" xmlns="http://www.w3.org/2000/svg">
<path d="M26.25 30H3.75C1.65 30 0 28.35 0 26.25V3.75C0 1.65 1.65 0 3.75 0H26.25C28.35 0 30 1.65 30 3.75V26.25C30 28.35 28.35 30 26.25 30Z" fill="#007BB5"/>
<path d="M8.475 12.75H11.25V21.75H8.475V12.75ZM9.9 8.25C10.8 8.25 11.55 9 11.55 9.9C11.55 10.8 10.8 11.55 9.9 11.55C9 11.55 8.25 10.8 8.25 9.9C8.25 9 9 8.25 9.9 8.25Z" fill="white"/>
<path d="M13.05 12.7499H15.75V13.9499C16.125 13.2749 17.025 12.5249 18.375 12.5249C21.225 12.5249 21.75 14.3999 21.75 16.7999V21.7499H18.975V17.3999C18.975 16.3499 18.975 14.9999 17.55 14.9999C16.125 14.9999 15.9 16.1249 15.9 17.3249V21.7499H13.125V12.7499H13.05Z" fill="white"/>
</svg>
