<svg width="30" height="30" viewBox="0 0 30 30" fill="none" xmlns="http://www.w3.org/2000/svg">
<path d="M26.25 30H3.75C1.65 30 0 28.35 0 26.25V3.75C0 1.65 1.65 0 3.75 0H26.25C28.35 0 30 1.65 30 3.75V26.25C30 28.35 28.35 30 26.25 30Z" fill="#50ABF1"/>
<path d="M22.875 10.1248C22.275 10.3498 21.675 10.5748 21 10.6498C21.675 10.2748 22.2 9.59981 22.425 8.84981C21.825 9.22481 21.075 9.52481 20.4 9.59981C19.8 8.99981 18.975 8.5498 18.075 8.5498C16.275 8.5498 14.85 9.9748 14.85 11.7748C14.85 11.9998 14.85 12.2998 14.925 12.5248C12.225 12.3748 9.825 11.0998 8.25 9.1498C7.95 9.5998 7.8 10.1998 7.8 10.7998C7.8 11.9248 8.4 12.8998 9.225 13.4998C8.7 13.4998 8.175 13.3498 7.725 13.1248C7.725 13.1248 7.725 13.1248 7.725 13.1998C7.725 14.7748 8.85 16.0498 10.35 16.3498C10.05 16.4248 9.825 16.4998 9.525 16.4998C9.3 16.4998 9.15 16.4998 8.925 16.4248C9.3 17.6998 10.5 18.6748 11.925 18.6748C10.8 19.5748 9.45 20.0248 7.875 20.0248C7.65 20.0248 7.35 20.0248 7.125 19.9498C8.55 20.8498 10.275 21.3748 12.075 21.3748C18 21.3748 21.3 16.4248 21.3 12.1498C21.3 11.9998 21.3 11.8498 21.3 11.6998C21.9 11.3248 22.425 10.7998 22.875 10.1248Z" fill="white"/>
</svg>
