<svg width="30" height="30" viewBox="0 0 30 30" fill="none" xmlns="http://www.w3.org/2000/svg">
<path d="M26.25 30H3.75C1.65 30 0 28.35 0 26.25V3.75C0 1.65 1.65 0 3.75 0H26.25C28.35 0 30 1.65 30 3.75V26.25C30 28.35 28.35 30 26.25 30Z" fill="#E52D27"/>
<path d="M24.225 11.2502C24.225 11.2502 24.075 9.97519 23.475 9.37519C22.725 8.62519 21.975 8.62519 21.6 8.55019C18.975 8.32519 15.075 8.3252 15.075 8.3252C15.075 8.3252 11.175 8.32519 8.55003 8.55019C8.17503 8.62519 7.35003 8.62519 6.67503 9.37519C6.15003 9.97519 5.92503 11.2502 5.92503 11.2502C5.92503 11.2502 5.77502 12.7502 5.77502 14.2502V15.6752C5.77502 17.1752 5.92503 18.6752 5.92503 18.6752C5.92503 18.6752 6.07503 19.9502 6.67503 20.5502C7.42503 21.3002 8.32502 21.3002 8.77502 21.3752C10.275 21.5252 15.15 21.6002 15.15 21.6002C15.15 21.6002 19.125 21.6002 21.75 21.3752C22.125 21.3002 22.95 21.3002 23.625 20.5502C24.15 19.9502 24.375 18.6752 24.375 18.6752C24.375 18.6752 24.525 17.1752 24.525 15.6752V14.2502C24.375 12.7502 24.225 11.2502 24.225 11.2502ZM13.05 17.4002V12.1502L18.15 14.7752L13.05 17.4002Z" fill="white"/>
<path d="M13.05 17.4004L18.15 14.7754L13.05 12.1504V17.4004Z" fill="#E52D27"/>
<path opacity="0.12" d="M13.05 12.1504L17.475 15.1504L18.075 14.8504L13.05 12.1504Z" fill="#3C3C3C"/>
</svg>
